<svg width="17" height="15" viewBox="0 0 17 15" fill="none" xmlns="http://www.w3.org/2000/svg">
<path d="M0.0890789 7.72011C0.0948753 8.34688 0.347412 8.94612 0.791965 9.38798L5.90279 14.5107C6.126 14.7326 6.42795 14.8571 6.74268 14.8571C7.05742 14.8571 7.35936 14.7326 7.58257 14.5107C7.69423 14.4 7.78286 14.2682 7.84334 14.123C7.90383 13.9779 7.93497 13.8221 7.93497 13.6649C7.93497 13.5076 7.90383 13.3519 7.84334 13.2067C7.78286 13.0615 7.69423 12.9298 7.58257 12.819L3.66308 8.91144L15.5764 8.91144C15.8924 8.91144 16.1954 8.78593 16.4188 8.56251C16.6422 8.33909 16.7678 8.03607 16.7678 7.72011C16.7678 7.40415 16.6422 7.10113 16.4188 6.87771C16.1954 6.65429 15.8924 6.52878 15.5764 6.52878L3.66308 6.52878L7.58257 2.60928C7.8069 2.38653 7.93356 2.08379 7.93468 1.76765C7.9358 1.45151 7.81128 1.14788 7.58853 0.923547C7.36578 0.699214 7.06303 0.572556 6.74689 0.57144C6.43076 0.570323 6.12712 0.694839 5.90279 0.917591L0.791965 6.04033C0.344515 6.48511 0.0917377 7.08921 0.0890789 7.72011Z" fill="currentColor"/>
</svg>
