<svg width="18" height="18" viewBox="0 0 18 18" fill="none" xmlns="http://www.w3.org/2000/svg">
<path d="M2.40001 15.6001H3.67501L13.05 6.2251L11.775 4.9501L2.40001 14.3251V15.6001ZM0.600006 17.4001V13.5751L13.05 1.1251C13.2333 0.941764 13.432 0.808431 13.646 0.725098C13.8598 0.641764 14.0848 0.600098 14.321 0.600098C14.557 0.600098 14.7833 0.641764 15 0.725098C15.2167 0.808431 15.4167 0.941764 15.6 1.1251L16.875 2.4001C17.0583 2.58343 17.1917 2.78343 17.275 3.0001C17.3583 3.21676 17.4 3.43793 17.4 3.6636C17.4 3.90443 17.3582 4.13393 17.2745 4.3521C17.1908 4.57026 17.0577 4.7696 16.875 4.9501L4.42501 17.4001H0.600006ZM12.4013 5.59885L11.775 4.9501L13.05 6.2251L12.4013 5.59885Z" fill="#1C1B1F"/>
</svg>
