<svg width="100%" height="100%" viewBox="0 0 25 24" fill="none" xmlns="http://www.w3.org/2000/svg">
<path d="M16.4753 4.4502H20.6614C20.8766 4.4502 21.0784 4.57317 21.1654 4.77294C21.2352 4.93292 21.227 5.11572 21.1304 5.32579C21.0975 5.39729 18.2755 13.7011 16.8791 17.773C16.8145 17.9611 16.7491 18.1514 16.6595 18.328C16.2776 19.0812 15.6807 19.5303 14.8311 19.5392C13.2929 19.5553 11.7542 19.552 10.216 19.5411C9.42441 19.5356 8.81329 19.173 8.41601 18.4763C8.28924 18.254 8.20381 18.0047 8.11866 17.761C7.37694 15.6348 6.63741 13.508 5.90144 11.3798C5.2112 9.38322 4.53272 7.38246 3.8318 5.39034C3.83043 5.38644 3.82906 5.38254 3.82769 5.37865C3.67108 4.92486 4.00594 4.4502 4.47906 4.4502H8.79768C8.79823 4.48998 12.109 13.9938 12.2065 14.1618C12.2856 13.9545 13.0372 11.5231 13.3419 10.4282C13.4446 10.0596 13.5801 9.86762 14.0135 9.85203C14.7993 9.82366 17.0346 9.54876 17.3594 9.47309C17.8875 9.34983 18.261 8.85625 18.2558 8.34375C18.2508 7.83876 17.8432 7.33238 17.347 7.21525C16.8175 7.09032 16.254 7.37078 16.0249 7.883C15.9534 8.0427 15.9052 8.21326 15.8283 8.42944C15.2391 8.31843 14.6718 8.21187 14.0535 8.09529C14.283 7.32682 14.5387 6.63235 14.6912 5.91536C14.6928 5.90812 14.6942 5.90089 14.6958 5.89338C14.8818 5.04867 15.6235 4.4502 16.4753 4.4502Z" fill="currentColor"/>
</svg>
