<svg width="66" height="58" viewBox="0 0 66 58" fill="none" xmlns="http://www.w3.org/2000/svg">
<path d="M11.493 50.748V54.3325C11.493 55.3481 11.1495 56.1994 10.4625 56.8864C9.77544 57.5735 8.92412 57.917 7.90851 57.917H4.32401C3.3084 57.917 2.45708 57.5735 1.77005 56.8864C1.08302 56.1994 0.739502 55.3481 0.739502 54.3325V25.6565L8.26696 4.14944C8.62541 3.07409 9.26763 2.20784 10.1936 1.55068C11.1196 0.893521 12.1502 0.564941 13.2853 0.564941H52.7148C53.8499 0.564941 54.8804 0.893521 55.8064 1.55068C56.7324 2.20784 57.3747 3.07409 57.7331 4.14944L65.2606 25.6565V54.3325C65.2606 55.3481 64.917 56.1994 64.23 56.8864C63.543 57.5735 62.6917 57.917 61.6761 57.917H58.0916C57.0759 57.917 56.2246 57.5735 55.5376 56.8864C54.8506 56.1994 54.507 55.3481 54.507 54.3325V50.748H11.493ZM10.7761 18.4875H55.2239L51.4602 7.73395H14.5398L10.7761 18.4875ZM16.8698 39.9945C18.3633 39.9945 19.6328 39.4717 20.6783 38.4263C21.7238 37.3808 22.2465 36.1113 22.2465 34.6177C22.2465 33.1242 21.7238 31.8547 20.6783 30.8092C19.6328 29.7637 18.3633 29.241 16.8698 29.241C15.3762 29.241 14.1067 29.7637 13.0612 30.8092C12.0158 31.8547 11.493 33.1242 11.493 34.6177C11.493 36.1113 12.0158 37.3808 13.0612 38.4263C14.1067 39.4717 15.3762 39.9945 16.8698 39.9945ZM49.1303 39.9945C50.6238 39.9945 51.8933 39.4717 52.9388 38.4263C53.9843 37.3808 54.507 36.1113 54.507 34.6177C54.507 33.1242 53.9843 31.8547 52.9388 30.8092C51.8933 29.7637 50.6238 29.241 49.1303 29.241C47.6368 29.241 46.3672 29.7637 45.3218 30.8092C44.2763 31.8547 43.7535 33.1242 43.7535 34.6177C43.7535 36.1113 44.2763 37.3808 45.3218 38.4263C46.3672 39.4717 47.6368 39.9945 49.1303 39.9945Z" fill="currentColor"/>
</svg>
