<svg width="24" height="24" viewBox="0 0 24 24" fill="none" xmlns="http://www.w3.org/2000/svg">
    <path fill-rule="evenodd" clip-rule="evenodd" d="M20.1745 4.90872H6.63477L7.57052 14.0782L18.0303 13.0305C18.6834 13.0327 19.2908 12.6959 19.6348 12.1407L21.779 7.69158C22.1247 7.11979 22.1321 6.40524 21.7984 5.82639C21.4646 5.24754 20.8425 4.89599 20.1745 4.90872Z" stroke="currentColor" stroke-width="1.5" stroke-linecap="round" stroke-linejoin="round"/>
    <path fill-rule="evenodd" clip-rule="evenodd" d="M8.65415 21.425C8.65098 22.1638 8.05008 22.7604 7.31129 22.7583C6.57251 22.7562 5.97502 22.1561 5.97608 21.4173C5.97713 20.6786 6.57632 20.0802 7.3151 20.0802C7.671 20.081 8.01202 20.2231 8.26314 20.4753C8.51426 20.7275 8.65491 21.0691 8.65415 21.425V21.425Z" stroke="currentColor" stroke-width="1.5" stroke-linecap="round" stroke-linejoin="round"/>
    <path fill-rule="evenodd" clip-rule="evenodd" d="M16.6913 21.425C16.6881 22.1638 16.0872 22.7604 15.3484 22.7583C14.6096 22.7562 14.0121 22.1561 14.0132 21.4173C14.0142 20.6786 14.6134 20.0802 15.3522 20.0802C15.7081 20.081 16.0491 20.2231 16.3003 20.4753C16.5514 20.7275 16.692 21.0691 16.6913 21.425V21.425Z" stroke="currentColor" stroke-width="1.5" stroke-linecap="round" stroke-linejoin="round"/>
    <path d="M5.90807 5.09398C6.01042 5.49535 6.41877 5.73775 6.82013 5.6354C7.2215 5.53305 7.4639 5.1247 7.36155 4.72334L5.90807 5.09398ZM5.73925 1.39672L6.46605 1.21138L6.46342 1.20159L5.73925 1.39672ZM5.53401 1.24172V1.99179L5.54443 1.99165L5.53401 1.24172ZM1.95605 0.49172C1.54184 0.49172 1.20605 0.827506 1.20605 1.24172C1.20605 1.65593 1.54184 1.99172 1.95605 1.99172V0.49172ZM7.60177 14.8275C8.01563 14.8103 8.33714 14.4608 8.3199 14.047C8.30266 13.6331 7.95319 13.3116 7.53934 13.3288L7.60177 14.8275ZM7.57055 17.3878L7.53934 18.1371C7.54974 18.1375 7.56015 18.1378 7.57055 18.1378V17.3878ZM17.1032 18.1378C17.5174 18.1378 17.8532 17.802 17.8532 17.3878C17.8532 16.9735 17.5174 16.6378 17.1032 16.6378V18.1378ZM7.36155 4.72334L6.46599 1.2114L5.0125 1.58205L5.90807 5.09398L7.36155 4.72334ZM6.46342 1.20159C6.34926 0.777948 5.9623 0.485697 5.52359 0.491792L5.54443 1.99165C5.29733 1.99508 5.07937 1.83047 5.01507 1.59186L6.46342 1.20159ZM5.53401 0.49172H1.95605V1.99172H5.53401V0.49172ZM7.53934 13.3288C6.25049 13.3825 5.23327 14.443 5.23327 15.733H6.73327C6.73327 15.2471 7.11637 14.8478 7.60177 14.8275L7.53934 13.3288ZM5.23327 15.733C5.23327 17.0229 6.25049 18.0834 7.53934 18.1371L7.60177 16.6384C7.11637 16.6182 6.73327 16.2188 6.73327 15.733H5.23327ZM7.57055 18.1378H17.1032V16.6378H7.57055V18.1378Z" fill="currentColor"/>
</svg>
