<svg width="24" height="24" viewBox="0 0 24 24" fill="none" xmlns="http://www.w3.org/2000/svg">
    <mask id="mask0_1116_5895" style="mask-type:alpha" maskUnits="userSpaceOnUse" x="0" y="0" width="24" height="24">
        <rect width="24" height="24" fill="#D9D9D9"/>
    </mask>
    <g mask="url(#mask0_1116_5895)">
        <path d="M12 22C10.6333 22 9.34167 21.7375 8.125 21.2125C6.90833 20.6875 5.84583 19.9708 4.9375 19.0625C4.02917 18.1542 3.3125 17.0917 2.7875 15.875C2.2625 14.6583 2 13.3667 2 12C2 10.6167 2.2625 9.31667 2.7875 8.1C3.3125 6.88333 4.02917 5.825 4.9375 4.925C5.84583 4.025 6.90833 3.3125 8.125 2.7875C9.34167 2.2625 10.6333 2 12 2C13.3833 2 14.6833 2.2625 15.9 2.7875C17.1167 3.3125 18.175 4.025 19.075 4.925C19.975 5.825 20.6875 6.88333 21.2125 8.1C21.7375 9.31667 22 10.6167 22 12C22 13.3667 21.7375 14.6583 21.2125 15.875C20.6875 17.0917 19.975 18.1542 19.075 19.0625C18.175 19.9708 17.1167 20.6875 15.9 21.2125C14.6833 21.7375 13.3833 22 12 22ZM12 4C10.15 4 8.51667 4.55417 7.1 5.6625C5.68333 6.77083 4.74167 8.18333 4.275 9.9C4.60833 9.81667 4.95417 9.65417 5.3125 9.4125C5.67083 9.17083 6.08333 8.58333 6.55 7.65C6.8 7.13333 7.16667 6.72917 7.65 6.4375C8.13333 6.14583 8.66667 6 9.25 6H14.75C15.3333 6 15.8667 6.14583 16.35 6.4375C16.8333 6.72917 17.2 7.13333 17.45 7.65C17.9167 8.6 18.3375 9.19167 18.7125 9.425C19.0875 9.65833 19.425 9.81667 19.725 9.9C19.2583 8.18333 18.3208 6.77083 16.9125 5.6625C15.5042 4.55417 13.8667 4 12 4ZM12 20C14.2333 20 16.1292 19.2167 17.6875 17.65C19.2458 16.0833 20.0167 14.1833 20 11.95C18.8167 11.8333 17.9083 11.4625 17.275 10.8375C16.6417 10.2125 16.1 9.45 15.65 8.55C15.5667 8.36667 15.4458 8.22917 15.2875 8.1375C15.1292 8.04583 14.9583 8 14.775 8H9.25C9.05 8 8.87083 8.04583 8.7125 8.1375C8.55417 8.22917 8.43333 8.36667 8.35 8.55C7.9 9.46667 7.35 10.2375 6.7 10.8625C6.05 11.4875 5.15 11.8583 4 11.975C4 14.2083 4.77917 16.1042 6.3375 17.6625C7.89583 19.2208 9.78333 20 12 20ZM9 14.25C8.65 14.25 8.35417 14.1292 8.1125 13.8875C7.87083 13.6458 7.75 13.35 7.75 13C7.75 12.65 7.87083 12.3542 8.1125 12.1125C8.35417 11.8708 8.65 11.75 9 11.75C9.35 11.75 9.64583 11.8708 9.8875 12.1125C10.1292 12.3542 10.25 12.65 10.25 13C10.25 13.35 10.1292 13.6458 9.8875 13.8875C9.64583 14.1292 9.35 14.25 9 14.25ZM15 14.25C14.65 14.25 14.3542 14.1292 14.1125 13.8875C13.8708 13.6458 13.75 13.35 13.75 13C13.75 12.65 13.8708 12.3542 14.1125 12.1125C14.3542 11.8708 14.65 11.75 15 11.75C15.35 11.75 15.6458 11.8708 15.8875 12.1125C16.1292 12.3542 16.25 12.65 16.25 13C16.25 13.35 16.1292 13.6458 15.8875 13.8875C15.6458 14.1292 15.35 14.25 15 14.25Z" fill="#1C1B1F"/>
    </g>
</svg>
