<svg width="25" height="25" viewBox="0 0 25 25" fill="none" xmlns="http://www.w3.org/2000/svg">
    <path fill-rule="evenodd" clip-rule="evenodd" d="M11.8845 10.5857C12.5671 9.59741 12.4315 8.25986 11.5645 7.42867C10.6854 6.58423 9.34089 6.45545 8.31749 7.11767C7.89733 7.38924 7.56763 7.77987 7.37049 8.23967C7.17617 8.69497 7.12524 9.19869 7.22449 9.68367C7.32415 10.1709 7.56805 10.6169 7.92449 10.9637C8.28772 11.3148 8.74536 11.5525 9.24149 11.6477C9.74104 11.7452 10.2581 11.6962 10.7305 11.5067C11.1973 11.3198 11.5988 10.9995 11.8845 10.5857Z" stroke="black" stroke-width="1.5" stroke-linecap="round" stroke-linejoin="round"/>
    <path fill-rule="evenodd" clip-rule="evenodd" d="M12.7505 18.5857C12.0679 17.5974 12.2035 16.2599 13.0705 15.4287C13.9496 14.5842 15.2941 14.4555 16.3175 15.1177C16.7377 15.3892 17.0674 15.7799 17.2645 16.2397C17.4588 16.695 17.5097 17.1987 17.4105 17.6837C17.3108 18.1709 17.0669 18.6169 16.7105 18.9637C16.3473 19.3148 15.8896 19.5525 15.3935 19.6477C14.8948 19.7443 14.3789 19.695 13.9075 19.5057C13.4397 19.3196 13.0372 18.9996 12.7505 18.5857V18.5857Z" stroke="black" stroke-width="1.5" stroke-linecap="round" stroke-linejoin="round"/>
    <path d="M12.3174 8.44666C11.9032 8.44666 11.5674 8.78244 11.5674 9.19666C11.5674 9.61087 11.9032 9.94666 12.3174 9.94666V8.44666ZM19.3174 9.94666C19.7316 9.94666 20.0674 9.61087 20.0674 9.19666C20.0674 8.78244 19.7316 8.44666 19.3174 8.44666V9.94666ZM7.17438 9.94666C7.5886 9.94666 7.92438 9.61087 7.92438 9.19666C7.92438 8.78244 7.5886 8.44666 7.17438 8.44666V9.94666ZM5.31738 8.44666C4.90317 8.44666 4.56738 8.78244 4.56738 9.19666C4.56738 9.61087 4.90317 9.94666 5.31738 9.94666V8.44666ZM12.3174 17.9467C12.7316 17.9467 13.0674 17.6109 13.0674 17.1967C13.0674 16.7824 12.7316 16.4467 12.3174 16.4467V17.9467ZM5.31738 16.4467C4.90317 16.4467 4.56738 16.7824 4.56738 17.1967C4.56738 17.6109 4.90317 17.9467 5.31738 17.9467V16.4467ZM17.4604 16.4467C17.0462 16.4467 16.7104 16.7824 16.7104 17.1967C16.7104 17.6109 17.0462 17.9467 17.4604 17.9467V16.4467ZM19.3174 17.9467C19.7316 17.9467 20.0674 17.6109 20.0674 17.1967C20.0674 16.7824 19.7316 16.4467 19.3174 16.4467V17.9467ZM12.3174 9.94666H19.3174V8.44666H12.3174V9.94666ZM7.17438 8.44666H5.31738V9.94666H7.17438V8.44666ZM12.3174 16.4467H5.31738V17.9467H12.3174V16.4467ZM17.4604 17.9467H19.3174V16.4467H17.4604V17.9467Z" fill="black"/>
</svg>
