<svg width="24" height="25" viewBox="0 0 24 25" fill="none" xmlns="http://www.w3.org/2000/svg">
<path d="M15.7731 13.473L14.6501 12.3499C14.8001 11.5217 14.5639 10.7772 13.9414 10.1163C13.319 9.45537 12.5552 9.19992 11.6501 9.34992L10.527 8.22687C10.7527 8.12559 10.9841 8.04963 11.2212 7.999C11.4584 7.94835 11.718 7.92302 12.0001 7.92302C13.1347 7.92302 14.0978 8.31885 14.8895 9.11052C15.6811 9.90219 16.077 10.8653 16.077 11.9999C16.077 12.282 16.0517 12.5448 16.001 12.7884C15.9504 13.032 15.8744 13.2602 15.7731 13.473ZM18.9539 16.5845L17.8501 15.5499C18.4834 15.0666 19.0459 14.5374 19.5376 13.9624C20.0292 13.3874 20.4501 12.7333 20.8001 11.9999C19.9667 10.3166 18.7709 8.97909 17.2126 7.98742C15.6542 6.99575 13.9167 6.49992 12.0001 6.49992C11.5167 6.49992 11.0417 6.53325 10.5751 6.59992C10.1084 6.66659 9.65007 6.76659 9.20007 6.89992L8.03472 5.73457C8.66677 5.48329 9.31228 5.29803 9.97125 5.1788C10.6302 5.05956 11.3065 4.99995 12.0001 4.99995C14.3437 4.99995 16.4571 5.6461 18.3404 6.9384C20.2238 8.23071 21.5975 9.91789 22.4616 11.9999C22.0911 12.8935 21.6125 13.7275 21.026 14.5018C20.4395 15.2762 19.7488 15.9704 18.9539 16.5845ZM19.7616 22.3691L15.7155 18.3537C15.2027 18.5435 14.6344 18.6986 14.0107 18.8191C13.3869 18.9396 12.7167 18.9999 12.0001 18.9999C9.65009 18.9999 7.53664 18.3537 5.65972 17.0614C3.78281 15.7691 2.40909 14.082 1.53857 11.9999C1.90781 11.1166 2.38473 10.2925 2.96935 9.5278C3.55397 8.76306 4.19756 8.09993 4.90012 7.5384L2.13087 4.7384L3.18472 3.68457L20.8154 21.3153L19.7616 22.3691ZM5.95395 8.5922C5.42575 9.01271 4.91197 9.51817 4.4126 10.1086C3.91323 10.699 3.50906 11.3294 3.20007 11.9999C4.03341 13.6833 5.22924 15.0208 6.78757 16.0124C8.34591 17.0041 10.0834 17.4999 12.0001 17.4999C12.4552 17.4999 12.9084 17.4615 13.3597 17.3845C13.811 17.3076 14.1937 17.2281 14.5078 17.1461L13.2424 15.8499C13.0719 15.9191 12.8744 15.9742 12.6501 16.0153C12.4257 16.0563 12.2091 16.0768 12.0001 16.0768C10.8655 16.0768 9.90234 15.681 9.11067 14.8893C8.31901 14.0977 7.92317 13.1345 7.92317 11.9999C7.92317 11.7974 7.94369 11.5855 7.98472 11.3643C8.02576 11.1432 8.08088 10.9409 8.1501 10.7576L5.95395 8.5922Z" fill="currentColor"/>
</svg>
