<svg width="24" height="25" viewBox="0 0 24 25" fill="none" xmlns="http://www.w3.org/2000/svg">
<path d="M12.0023 16.0769C13.1354 16.0769 14.0978 15.6803 14.8895 14.8871C15.6811 14.0939 16.077 13.1308 16.077 11.9977C16.077 10.8646 15.6804 9.90224 14.8872 9.11058C14.094 8.31891 13.1309 7.92308 11.9978 7.92308C10.8647 7.92308 9.90234 8.31966 9.11067 9.11282C8.31901 9.90601 7.92317 10.8692 7.92317 12.0023C7.92317 13.1353 8.31976 14.0977 9.11293 14.8894C9.90611 15.681 10.8693 16.0769 12.0023 16.0769ZM12.0001 14.7C11.2501 14.7 10.6126 14.4375 10.0876 13.9125C9.56257 13.3875 9.30007 12.75 9.30007 12C9.30007 11.25 9.56257 10.6125 10.0876 10.0875C10.6126 9.56248 11.2501 9.29998 12.0001 9.29998C12.7501 9.29998 13.3876 9.56248 13.9126 10.0875C14.4376 10.6125 14.7001 11.25 14.7001 12C14.7001 12.75 14.4376 13.3875 13.9126 13.9125C13.3876 14.4375 12.7501 14.7 12.0001 14.7ZM12.0014 19C9.70183 19 7.60651 18.3657 5.71547 17.0971C3.82446 15.8285 2.43216 14.1295 1.53857 12C2.43216 9.87049 3.82401 8.17146 5.71412 6.90288C7.60422 5.63429 9.69908 5 11.9987 5C14.2983 5 16.3936 5.63429 18.2847 6.90288C20.1757 8.17146 21.568 9.87049 22.4616 12C21.568 14.1295 20.1761 15.8285 18.286 17.0971C16.3959 18.3657 14.3011 19 12.0014 19ZM12.0001 17.5C13.8834 17.5 15.6126 17.0041 17.1876 16.0125C18.7626 15.0208 19.9667 13.6833 20.8001 12C19.9667 10.3166 18.7626 8.97914 17.1876 7.98748C15.6126 6.99581 13.8834 6.49998 12.0001 6.49998C10.1167 6.49998 8.38757 6.99581 6.81257 7.98748C5.23757 8.97914 4.03341 10.3166 3.20007 12C4.03341 13.6833 5.23757 15.0208 6.81257 16.0125C8.38757 17.0041 10.1167 17.5 12.0001 17.5Z" fill="currentColor"/>
</svg>
