<svg width="25" height="24" viewBox="0 0 25 24" fill="none" xmlns="http://www.w3.org/2000/svg">
    <mask id="mask0_301_32236" style="mask-type:alpha" maskUnits="userSpaceOnUse" x="0" y="0" width="25" height="24">
        <rect x="0.152405" width="24" height="24" fill="currentColor"/>
    </mask>
    <g mask="url(#mask0_301_32236)">
        <path d="M12.1524 17.275L8.00242 19.775C7.81909 19.8916 7.62742 19.9416 7.42742 19.9249C7.22742 19.9083 7.05242 19.8416 6.90242 19.725C6.75242 19.6083 6.63575 19.4625 6.55242 19.2874C6.46909 19.1124 6.45242 18.9166 6.50242 18.7L7.60242 13.975L3.92742 10.8C3.76075 10.65 3.65659 10.4791 3.61492 10.2875C3.57325 10.0958 3.58575 9.90828 3.65242 9.72495C3.71909 9.54162 3.81909 9.39162 3.95242 9.27495C4.08575 9.15828 4.26909 9.08328 4.50242 9.04995L9.35242 8.62495L11.2274 4.17495C11.3108 3.97495 11.4399 3.82495 11.6149 3.72495C11.7899 3.62495 11.9691 3.57495 12.1524 3.57495C12.3358 3.57495 12.5149 3.62495 12.6899 3.72495C12.8649 3.82495 12.9941 3.97495 13.0774 4.17495L14.9524 8.62495L19.8024 9.04995C20.0358 9.08328 20.2191 9.15828 20.3524 9.27495C20.4858 9.39162 20.5858 9.54162 20.6524 9.72495C20.7191 9.90828 20.7316 10.0958 20.6899 10.2875C20.6483 10.4791 20.5441 10.65 20.3774 10.8L16.7024 13.975L17.8024 18.7C17.8524 18.9166 17.8358 19.1124 17.7524 19.2874C17.6691 19.4625 17.5524 19.6083 17.4024 19.725C17.2524 19.8416 17.0774 19.9083 16.8774 19.9249C16.6774 19.9416 16.4858 19.8916 16.3024 19.775L12.1524 17.275Z" fill="currentColor"/>
    </g>
</svg>
