<svg width="32" height="27" viewBox="0 0 32 27" fill="none" xmlns="http://www.w3.org/2000/svg">
    <path fill-rule="evenodd" clip-rule="evenodd" d="M5.65347 0.998657C4.57897 1.00177 3.63735 1.71838 3.34803 2.75321L1.61219 7.42646C1.08748 9.39965 1.8525 11.4904 3.52681 12.6589C4.81002 13.5487 6.44689 13.7559 7.9113 13.2137C9.37571 12.6716 10.4831 11.4486 10.8776 9.93771L11.2269 7.44309L12.2393 0.998657H5.65347Z" stroke="#020202" stroke-width="1.5" stroke-linecap="round" stroke-linejoin="round"/>
    <path fill-rule="evenodd" clip-rule="evenodd" d="M26.0158 0.998657C27.0903 1.00177 28.032 1.71838 28.3213 2.75321L30.2546 7.12918C30.3471 7.32859 30.4169 7.5378 30.4625 7.75284C30.8269 9.63763 30.0472 11.5602 28.473 12.6589C27.1898 13.5487 25.553 13.7559 24.0886 13.2137C22.6241 12.6716 21.5167 11.4486 21.1222 9.93771L20.7813 7.42646L19.4321 0.998657H26.0158Z" stroke="#020202" stroke-width="1.5" stroke-linecap="round" stroke-linejoin="round"/>
    <path d="M12.2389 0.248657C11.8247 0.248657 11.4889 0.584444 11.4889 0.998657C11.4889 1.41287 11.8247 1.74866 12.2389 1.74866V0.248657ZM19.4318 1.74866C19.846 1.74866 20.1818 1.41287 20.1818 0.998657C20.1818 0.584444 19.846 0.248657 19.4318 0.248657V1.74866ZM11.9682 7.43939C11.9753 7.02524 11.6453 6.68373 11.2312 6.67661C10.817 6.6695 10.4755 6.99947 10.4684 7.41362L11.9682 7.43939ZM11.1975 8.63639L10.4475 8.62351V8.63639H11.1975ZM20.7893 8.63639H21.5393L21.5393 8.63124L20.7893 8.63639ZM21.531 7.42135C21.5281 7.00714 21.19 6.67367 20.7758 6.67652C20.3616 6.67937 20.0281 7.01745 20.031 7.43166L21.531 7.42135ZM4.27669 12.6683C4.2819 12.2541 3.95037 11.9141 3.53619 11.9089C3.12201 11.9037 2.78202 12.2352 2.77681 12.6494L4.27669 12.6683ZM3.41241 21.7372L2.66247 21.7277L2.66246 21.7282L3.41241 21.7372ZM4.61239 24.7094L5.14587 24.1823H5.14587L4.61239 24.7094ZM7.57011 25.9448V25.1948H7.57005L7.57011 25.9448ZM11.6779 26.6948C12.0921 26.6948 12.4279 26.359 12.4279 25.9448C12.4279 25.5305 12.0921 25.1948 11.6779 25.1948V26.6948ZM29.2227 12.6722C29.23 12.258 28.9003 11.9163 28.4861 11.909C28.072 11.9016 27.7303 12.2314 27.7229 12.6455L29.2227 12.6722ZM28.3107 21.7871L27.5607 21.7737V21.7871H28.3107ZM19.9953 25.1948C19.5811 25.1948 19.2453 25.5305 19.2453 25.9448C19.2453 26.359 19.5811 26.6948 19.9953 26.6948V25.1948ZM10.93 25.9448C10.93 26.359 11.2658 26.6948 11.68 26.6948C12.0942 26.6948 12.43 26.359 12.43 25.9448H10.93ZM19.2454 25.9448C19.2454 26.359 19.5812 26.6948 19.9954 26.6948C20.4096 26.6948 20.7454 26.359 20.7454 25.9448H19.2454ZM11.68 25.1948C11.2658 25.1948 10.93 25.5306 10.93 25.9448C10.93 26.3591 11.2658 26.6948 11.68 26.6948V25.1948ZM19.9954 26.6948C20.4096 26.6948 20.7454 26.3591 20.7454 25.9448C20.7454 25.5306 20.4096 25.1948 19.9954 25.1948V26.6948ZM12.2389 1.74866H19.4318V0.248657H12.2389V1.74866ZM10.4684 7.41362L10.4476 8.62351L11.9474 8.64928L11.9682 7.43939L10.4684 7.41362ZM10.4475 8.63639C10.4475 11.6993 12.9305 14.1823 15.9934 14.1823V12.6823C13.7589 12.6823 11.9475 10.8709 11.9475 8.63639H10.4475ZM15.9934 14.1823C19.0563 14.1823 21.5393 11.6993 21.5393 8.63639H20.0393C20.0393 10.8709 18.2279 12.6823 15.9934 12.6823V14.1823ZM21.5393 8.63124L21.531 7.42135L20.031 7.43166L20.0393 8.64155L21.5393 8.63124ZM2.77681 12.6494L2.66247 21.7277L4.16235 21.7466L4.27669 12.6683L2.77681 12.6494ZM2.66246 21.7282C2.64672 23.0399 3.15682 24.3034 4.07891 25.2366L5.14587 24.1823C4.50562 23.5343 4.15142 22.657 4.16236 21.7462L2.66246 21.7282ZM4.07891 25.2366C5.00099 26.1697 6.25829 26.6949 7.57016 26.6948L7.57005 25.1948C6.65915 25.1948 5.78613 24.8302 5.14587 24.1823L4.07891 25.2366ZM7.57011 26.6948H11.6779V25.1948H7.57011V26.6948ZM27.7229 12.6455L27.5608 21.7737L29.0605 21.8004L29.2227 12.6722L27.7229 12.6455ZM27.5607 21.7871C27.5607 23.6691 26.035 25.1948 24.153 25.1948V26.6948C26.8634 26.6948 29.0607 24.4975 29.0607 21.7871H27.5607ZM24.153 25.1948H19.9953V26.6948H24.153V25.1948ZM12.43 25.9448V23.8659H10.93V25.9448H12.43ZM12.43 23.8659C12.43 21.9839 13.9557 20.4582 15.8377 20.4582V18.9582C13.1273 18.9582 10.93 21.1555 10.93 23.8659H12.43ZM15.8377 20.4582C17.7197 20.4582 19.2454 21.9839 19.2454 23.8659H20.7454C20.7454 21.1555 18.5482 18.9582 15.8377 18.9582V20.4582ZM19.2454 23.8659V25.9448H20.7454V23.8659H19.2454ZM11.68 26.6948H19.9954V25.1948H11.68V26.6948Z" fill="#020202"/>
</svg>
