<svg width="14" height="14" viewBox="0 0 14 14" fill="none" xmlns="http://www.w3.org/2000/svg">
    <path d="M6.7111 7.00016C5.79443 7.00016 5.00971 6.67377 4.35693 6.021C3.70416 5.36822 3.37777 4.5835 3.37777 3.66683C3.37777 2.75016 3.70416 1.96544 4.35693 1.31266C5.00971 0.659885 5.79443 0.333496 6.7111 0.333496C7.62777 0.333496 8.41249 0.659885 9.06527 1.31266C9.71804 1.96544 10.0444 2.75016 10.0444 3.66683C10.0444 4.5835 9.71804 5.36822 9.06527 6.021C8.41249 6.67377 7.62777 7.00016 6.7111 7.00016ZM0.0444336 13.6668V11.3335C0.0444336 10.8613 0.165961 10.4272 0.409017 10.0314C0.652072 9.63558 0.974989 9.3335 1.37777 9.12516C2.23888 8.69461 3.11388 8.37169 4.00277 8.15641C4.89166 7.94113 5.79443 7.8335 6.7111 7.8335C7.62777 7.8335 8.53054 7.94113 9.41943 8.15641C10.3083 8.37169 11.1833 8.69461 12.0444 9.12516C12.4472 9.3335 12.7701 9.63558 13.0132 10.0314C13.2562 10.4272 13.3778 10.8613 13.3778 11.3335V13.6668H0.0444336ZM1.7111 12.0002H11.7111V11.3335C11.7111 11.1807 11.6729 11.0418 11.5965 10.9168C11.5201 10.7918 11.4194 10.6946 11.2944 10.6252C10.5444 10.2502 9.78749 9.96891 9.0236 9.78141C8.25971 9.59391 7.48888 9.50016 6.7111 9.50016C5.93332 9.50016 5.16249 9.59391 4.3986 9.78141C3.63471 9.96891 2.87777 10.2502 2.12777 10.6252C2.00277 10.6946 1.90207 10.7918 1.82568 10.9168C1.74929 11.0418 1.7111 11.1807 1.7111 11.3335V12.0002ZM6.7111 5.3335C7.16943 5.3335 7.56179 5.1703 7.88818 4.84391C8.21457 4.51752 8.37777 4.12516 8.37777 3.66683C8.37777 3.2085 8.21457 2.81613 7.88818 2.48975C7.56179 2.16336 7.16943 2.00016 6.7111 2.00016C6.25277 2.00016 5.86041 2.16336 5.53402 2.48975C5.20763 2.81613 5.04443 3.2085 5.04443 3.66683C5.04443 4.12516 5.20763 4.51752 5.53402 4.84391C5.86041 5.1703 6.25277 5.3335 6.7111 5.3335Z" fill="currentColor"/>
</svg>
