<svg width="172" height="41" viewBox="0 0 172 41" fill="none" xmlns="http://www.w3.org/2000/svg">
    <path d="M20.2681 9.74651V0.410583H26.2488V33.1701H20.2681V30.6223C18.4978 32.7075 16.0148 33.7492 12.8191 33.7472C10.2773 33.7472 8.07538 33.1232 6.21338 31.8752C4.38663 30.67 2.94157 28.9687 2.0478 26.971C1.1115 24.8364 0.64446 22.5256 0.678222 20.1949C0.671452 18.7662 0.840174 17.3421 1.1806 15.9545C1.50151 14.6513 2.0134 13.4028 2.6997 12.2494C3.35513 11.1495 4.17961 10.1595 5.14284 9.3159C6.14145 8.46112 7.29317 7.80358 8.5369 7.37815C9.9143 6.9044 11.3626 6.66975 12.8191 6.68438C16.0587 6.68438 18.5417 7.70509 20.2681 9.74651ZM10.367 27.9878C11.3246 28.4579 12.3773 28.7023 13.4441 28.7023C14.5109 28.7023 15.5635 28.4579 16.5212 27.9878C17.3921 27.5356 18.1332 26.8686 18.6743 26.05C19.2172 25.2177 19.6212 24.3027 19.8704 23.3407C20.3993 21.2809 20.3993 19.1208 19.8704 17.061C19.6212 16.1046 19.2171 15.1955 18.6743 14.3696C18.1311 13.5551 17.3903 12.8915 16.5212 12.4408C15.5635 11.9707 14.5109 11.7263 13.4441 11.7263C12.3773 11.7263 11.3246 11.9707 10.367 12.4408C9.50391 12.8921 8.77009 13.5559 8.23487 14.3696C7.69919 15.1994 7.29566 16.1073 7.03872 17.061C6.49355 19.1187 6.49355 21.283 7.03872 23.3407C7.29561 24.3 7.69908 25.2139 8.23487 26.05C8.76918 26.8645 9.50322 27.5285 10.367 27.9788V27.9878Z" fill="black"/>
    <path d="M36.0692 8.51448C38.1014 7.31621 40.4175 6.68421 42.7766 6.68421C45.1358 6.68421 47.4518 7.31621 49.484 8.51448C51.403 9.69889 52.9557 11.3924 53.9696 13.4067C54.9989 15.5269 55.5337 17.853 55.5337 20.2098C55.5337 22.5666 54.9989 24.8927 53.9696 27.0129C52.9578 29.0318 51.4048 30.7297 49.484 31.9171C47.4496 33.1152 45.1316 33.747 42.7706 33.747C40.4096 33.747 38.0917 33.1152 36.0573 31.9171C34.1343 30.7323 32.5807 29.0336 31.5717 27.0129C30.5502 24.8905 30.0198 22.5652 30.0198 20.2098C30.0198 17.8544 30.5502 15.5291 31.5717 13.4067C32.5855 11.3886 34.1433 9.6941 36.0692 8.51448ZM40.2348 28.212C41.0432 28.5416 41.9097 28.7054 42.7826 28.6935C43.6517 28.7057 44.5143 28.542 45.3184 28.212C46.0388 27.9208 46.6914 27.4841 47.2353 26.9292C47.7672 26.366 48.2081 25.7233 48.5421 25.0243C48.898 24.2885 49.1602 23.5109 49.3225 22.7097C49.4887 21.8818 49.5709 21.0393 49.5677 20.1949C49.5715 19.135 49.4357 18.0794 49.164 17.055C48.9113 16.0998 48.5075 15.1913 47.9679 14.3636C47.4319 13.5506 46.6982 12.887 45.8358 12.4348C44.8872 11.9454 43.8318 11.6998 42.7647 11.7202C41.69 11.7013 40.6272 11.9467 39.6696 12.4348C38.7982 12.8822 38.0567 13.5465 37.5166 14.3636C36.9809 15.1934 36.5774 16.1013 36.3204 17.055C36.0458 18.0748 35.909 19.1268 35.9137 20.1829C35.9116 21.0274 35.9947 21.87 36.1619 22.6978C36.3243 23.4989 36.5865 24.2765 36.9424 25.0123C37.2773 25.716 37.7258 26.3596 38.2701 26.9172C38.828 27.4763 39.4933 27.9167 40.2258 28.212H40.2348Z" fill="black"/>
    <path d="M59.2386 33.1701V0.410583H65.2193V33.1701H59.2386Z" fill="black"/>
    <path d="M69.5793 33.1701V0.410583H75.56V33.1701H69.5793Z" fill="black"/>
    <path d="M129.949 6.68438C132.491 6.68438 134.69 7.30836 136.546 8.55634C138.364 9.76425 139.801 11.4654 140.687 13.4605C141.585 15.6052 142.048 17.9071 142.048 20.2322C142.048 22.5573 141.585 24.8592 140.687 27.0039C139.801 28.9927 138.364 30.6861 136.546 31.8842C134.688 33.1282 132.489 33.7492 129.949 33.7472C126.725 33.7472 124.242 32.7195 122.5 30.6641V40.2782H116.519V7.26152H122.5V9.78838C124.256 7.71905 126.739 6.68438 129.949 6.68438ZM126.214 27.9788C127.163 28.4699 128.22 28.7156 129.288 28.6935C130.362 28.7135 131.424 28.468 132.38 27.9788C133.251 27.5314 133.993 26.8672 134.533 26.05C135.069 25.2205 135.473 24.3125 135.729 23.3587C136.004 22.3389 136.141 21.2869 136.136 20.2307C136.138 19.3862 136.055 18.5437 135.888 17.7158C135.727 16.9152 135.465 16.1383 135.107 15.4043C134.773 14.6993 134.324 14.0546 133.779 13.4964C133.223 12.9424 132.561 12.5061 131.833 12.2136C131.024 11.8845 130.158 11.7208 129.285 11.7321C128.415 11.7196 127.551 11.8834 126.746 12.2136C126.026 12.5048 125.373 12.9415 124.829 13.4964C124.297 14.0602 123.856 14.704 123.523 15.4043C123.166 16.1389 122.904 16.9156 122.742 17.7158C122.576 18.5438 122.494 19.3863 122.497 20.2307C122.491 21.2861 122.624 22.3377 122.892 23.3587C123.144 24.314 123.548 25.2226 124.088 26.05C124.621 26.8632 125.353 27.527 126.214 27.9788Z" fill="black"/>
    <path d="M159.242 6.68438C161.782 6.68438 163.975 7.30836 165.821 8.55634C167.64 9.76494 169.077 11.4658 169.966 13.4605C170.862 15.6057 171.323 17.9074 171.323 20.2322C171.323 22.557 170.862 24.8588 169.966 27.0039C169.086 28.9884 167.658 30.6811 165.851 31.8842C163.993 33.1282 161.8 33.7492 159.272 33.7472C156.045 33.7472 153.561 32.7195 151.82 30.6641V40.2782H145.84V7.26152H151.82V9.78838C153.555 7.71905 156.029 6.68438 159.242 6.68438ZM155.505 27.9788C156.453 28.4699 157.51 28.7156 158.579 28.6935C159.652 28.7135 160.715 28.468 161.671 27.9788C162.542 27.5314 163.284 26.8672 163.824 26.05C164.361 25.2212 164.765 24.313 165.02 23.3587C165.296 22.3391 165.433 21.287 165.427 20.2307C165.428 19.3864 165.346 18.544 165.181 17.7158C165.02 16.915 164.757 16.1382 164.398 15.4043C164.064 14.6993 163.615 14.0546 163.07 13.4964C162.514 12.9417 161.852 12.5053 161.123 12.2136C160.315 11.8845 159.449 11.7208 158.576 11.7321C157.706 11.7199 156.842 11.8836 156.037 12.2136C155.316 12.5048 154.664 12.9415 154.12 13.4964C153.588 14.0603 153.148 14.7041 152.816 15.4043C152.457 16.1382 152.194 16.915 152.033 17.7158C151.867 18.5438 151.784 19.3863 151.787 20.2307C151.782 21.2861 151.915 22.3377 152.182 23.3587C152.434 24.314 152.838 25.2226 153.378 26.05C153.912 26.8632 154.643 27.527 155.505 27.9788Z" fill="black"/>
    <path d="M114.83 33.1671H98.5978L93.9777 26.8095H101.615L96.2773 19.4084L86.3523 33.1641H77.725L95.5985 8.78959C95.7239 8.6184 95.7995 8.41578 95.8168 8.20424C95.8341 7.99269 95.7924 7.7805 95.6963 7.59122C95.6003 7.40194 95.4537 7.24298 95.2728 7.13199C95.0919 7.021 94.8837 6.96233 94.6714 6.96248H89.6118V0.410584H94.5339C96.0309 0.410403 97.4959 0.844077 98.7516 1.65913C100.007 2.47419 101 3.63569 101.609 5.00309C102.219 6.37049 102.419 7.88517 102.185 9.36387C101.952 10.8426 101.294 12.2219 100.293 13.335L114.83 33.1671ZM79.612 32.2131H85.8648L96.2773 17.7727L103.481 27.7635H95.8527L99.0822 32.2101H112.943L99.0434 13.2452L99.3424 12.9462C100.292 11.9979 100.939 10.7896 101.202 9.47379C101.465 8.15801 101.332 6.79382 100.82 5.55354C100.308 4.31327 99.4396 3.25255 98.3251 2.50536C97.2106 1.75818 95.8996 1.35806 94.5578 1.35554H90.5657V5.99958H94.6804C95.0707 5.99552 95.4543 6.10065 95.788 6.3031C96.1217 6.50555 96.3921 6.79725 96.5688 7.14527C96.7454 7.49329 96.8212 7.88377 96.7877 8.27261C96.7542 8.66145 96.6126 9.03317 96.379 9.3458L79.612 32.2131Z" fill="black"/>
</svg>
