<svg width="204" height="200" viewBox="0 0 204 200" fill="none" xmlns="http://www.w3.org/2000/svg">
    <g clip-path="url(#clip0_617_4750)">
        <path opacity="0.3" d="M65.4793 102.013C62.1996 109.377 34.5183 110.921 26.9419 97.385C24.1461 92.3904 23.7387 84.7189 27.5735 80.905C34.0864 74.4227 51.7034 80.2281 60.5384 90.6794C62.8738 93.4465 67.0781 98.423 65.4793 102.013Z" fill="url(#paint0_linear_617_4750)"/>
        <path opacity="0.3" d="M151.249 79.6202C149.761 75.8048 159.144 65.3809 166.771 67.5425C169.584 68.34 172.509 70.9513 172.513 73.6879C172.52 78.3393 164.088 82.5339 157.129 81.929C155.287 81.7724 151.978 81.484 151.249 79.6202Z" fill="url(#paint1_linear_617_4750)"/>
        <path opacity="0.3" d="M0.90332 195.188C5.82926 177.301 15.3124 153.562 34.4469 147.638C50.9775 142.52 51.3762 155.159 71.5118 158.099C124.625 165.861 149.506 92.3777 178.539 103.891C197.023 111.222 208.244 135.512 200.737 162.746C196.451 178.291 188.038 189.105 182.527 195.08L0.90332 195.188Z" fill="url(#paint2_linear_617_4750)"/>
        <path d="M43.4479 96.7055L43.7826 97.3134C44.1954 98.062 44.8158 98.6775 45.5701 99.0872L46.1828 99.4193L45.5701 99.7515C44.8158 100.161 44.1954 100.777 43.7826 101.525L43.4479 102.133L43.1131 101.525C42.7003 100.777 42.08 100.161 41.3256 99.7515L40.7129 99.4193L41.3256 99.0872C42.08 98.6775 42.7003 98.062 43.1131 97.3134L43.4479 96.7055ZM138.864 63.7479L139.199 64.3558C139.612 65.1044 140.232 65.7199 140.987 66.1296L141.599 66.4618L140.987 66.7939C140.232 67.2036 139.612 67.8191 139.199 68.5677L138.864 69.1756L138.53 68.5677C138.117 67.8191 137.497 67.2036 136.742 66.7939L136.13 66.4618L136.742 66.1296C137.497 65.7199 138.117 65.1044 138.53 64.3558L138.864 63.7479ZM136.076 156.412L136.411 157.02C136.823 157.768 137.444 158.384 138.198 158.793L138.811 159.126L138.198 159.458C137.444 159.867 136.823 160.483 136.411 161.232L136.076 161.84L135.741 161.232C135.328 160.483 134.708 159.867 133.954 159.458L133.341 159.126L133.954 158.793C134.708 158.384 135.328 157.768 135.741 157.02L136.076 156.412ZM110.132 0.143066L110.467 0.751028C110.879 1.50032 111.498 2.11694 112.252 2.5279L112.864 2.86009L112.252 3.19227C111.497 3.60191 110.877 4.21744 110.464 4.96602L110.129 5.57398L109.794 4.96602C109.382 4.21744 108.761 3.60191 108.007 3.19227L107.394 2.86009L108.007 2.5279C108.761 2.11827 109.382 1.50273 109.794 0.75416L110.132 0.143066Z" fill="#5C74C6"/>
        <path d="M23.6586 195.441H170.726M178.737 195.223H194.716M11.6426 195.223H17.8752" stroke="#5C75C9" stroke-width="3.72126" stroke-miterlimit="10" stroke-linecap="round"/>
        <path d="M171.102 27.221H171.087C171.111 27.221 171.1 35.604 171.092 39.9757C171.091 40.6669 170.814 41.3297 170.322 41.819C169.83 42.3083 169.163 42.5844 168.466 42.5869C163.808 42.6081 154.58 42.623 154.58 42.623H149.766C149.263 42.6226 148.765 42.7206 148.301 42.9113C147.836 43.1019 147.414 43.3815 147.059 43.7341C146.703 44.0866 146.421 44.5053 146.228 44.9661C146.036 45.4269 145.937 45.9208 145.937 46.4196V30.9855C145.938 29.9873 146.338 29.0304 147.05 28.3253C147.762 27.6201 148.727 27.2243 149.733 27.2249H168.151C168.932 27.2241 169.682 26.9157 170.234 26.3674C170.787 25.8191 171.098 25.0757 171.098 24.3003L171.102 27.221Z" fill="#FA8A68"/>
        <path d="M151.797 46.1051V42.6783C151.797 42.6631 151.791 42.6486 151.78 42.6378C151.769 42.6271 151.755 42.6211 151.739 42.6211H149.598C148.344 42.6211 146.847 43.5283 146.334 44.6651C145.561 46.3809 145.998 48.0528 147.065 49.1065C147.42 49.4605 147.841 49.7413 148.305 49.9325C148.77 50.1237 149.268 50.2216 149.77 50.2206H151.736C151.751 50.2206 151.765 50.2146 151.776 50.2039C151.787 50.1931 151.793 50.1786 151.793 50.1634V49.4278C151.793 48.2855 151.797 47.1745 151.797 46.1051Z" fill="url(#paint3_linear_617_4750)"/>
        <path d="M171.097 24.0979C171.124 24.4978 171.068 24.8988 170.933 25.2763C170.797 25.6538 170.585 25.9997 170.309 26.2925C170.033 26.5854 169.7 26.8189 169.33 26.9787C168.959 27.1385 168.56 27.2212 168.156 27.2216H166.225C166.216 27.2216 166.505 27.2145 166.505 27.2059V21.3848C166.505 21.3762 166.216 21.3691 166.225 21.3691H168.051C169.621 21.3691 170.994 22.5428 171.097 24.0979Z" fill="url(#paint4_linear_617_4750)"/>
        <path d="M161.277 39.8871H155.422V37.6527H156.815V33.2606C156.474 33.3349 156.124 33.3678 155.774 33.3585C155.656 33.36 155.539 33.3529 155.422 33.3374V31.1868C155.478 31.1915 155.537 31.1939 155.598 31.1939C156.187 31.1991 156.771 31.0775 157.308 30.8374C157.843 30.5956 158.225 30.3083 158.455 29.9756H159.926V37.6534H161.277V39.8871Z" fill="white"/>
        <path d="M183.94 151.375C182.343 153.085 180.126 154.095 177.778 154.183C175.43 154.271 173.142 153.431 171.419 151.845C173.017 150.135 175.233 149.125 177.582 149.037C179.93 148.948 182.217 149.789 183.94 151.375Z" fill="url(#paint5_linear_617_4750)"/>
        <path d="M170.221 166.061C168.497 164.476 167.479 162.276 167.39 159.946C167.301 157.616 168.149 155.346 169.746 153.636C171.47 155.221 172.488 157.421 172.577 159.751C172.666 162.081 171.818 164.351 170.221 166.061Z" fill="#FD9271"/>
        <path d="M169.917 150.458C169.064 149.673 168.375 148.729 167.889 147.679C167.404 146.63 167.131 145.496 167.087 144.342C167.043 143.189 167.228 142.037 167.633 140.955C168.037 139.872 168.652 138.879 169.444 138.032C170.297 138.817 170.986 139.761 171.472 140.811C171.957 141.86 172.23 142.994 172.274 144.148C172.318 145.301 172.133 146.452 171.728 147.535C171.324 148.618 170.709 149.611 169.917 150.458Z" fill="#5C75C9"/>
        <path d="M168.24 152.25C166.643 153.96 164.426 154.97 162.078 155.059C159.73 155.147 157.442 154.306 155.719 152.721C157.316 151.011 159.533 150 161.881 149.912C164.23 149.824 166.517 150.665 168.24 152.25Z" fill="url(#paint6_linear_617_4750)"/>
        <path d="M66.0508 26.1499C64.6475 27.6516 62.7005 28.5385 60.6381 28.6157C58.5757 28.6929 56.5669 27.954 55.0536 26.5615C56.4569 25.0598 58.4039 24.1728 60.4663 24.0957C62.5287 24.0185 64.5375 24.7574 66.0508 26.1499Z" fill="url(#paint7_linear_617_4750)"/>
        <path d="M54.0086 39.0755C52.4951 37.6833 51.6009 35.7514 51.5227 33.705C51.4446 31.6585 52.1889 29.6651 53.5919 28.1632C55.1055 29.5554 55.9997 31.4872 56.0779 33.5337C56.156 35.5802 55.4117 37.5736 54.0086 39.0755Z" fill="#FD9271"/>
        <path d="M53.7401 25.3714C52.2265 23.9792 51.3323 22.0473 51.2542 20.0009C51.176 17.9544 51.9203 15.961 53.3234 14.4591C54.8369 15.8513 55.7311 17.7831 55.8093 19.8296C55.8874 21.8761 55.1431 23.8695 53.7401 25.3714Z" fill="#5C75C9"/>
        <path d="M52.2695 26.9458C50.8665 28.4477 48.9196 29.335 46.8573 29.4126C44.7949 29.4901 42.786 28.7515 41.2724 27.3593C42.6755 25.8574 44.6223 24.9701 46.6847 24.8925C48.747 24.815 50.756 25.5536 52.2695 26.9458Z" fill="url(#paint8_linear_617_4750)"/>
        <path d="M112.639 160.741C112.639 160.741 116.593 183.142 122.272 186.06L124.077 196.981H84.3242L85.9893 186.025C85.9893 186.025 92.398 175.472 92.837 160.739L112.639 160.741Z" fill="url(#paint9_linear_617_4750)"/>
        <path d="M139.408 137.712H64.8262L70.4019 103.782C72.9561 88.3727 86.379 77.0659 102.117 77.0659C117.855 77.0659 131.278 88.3735 133.832 103.782L139.408 137.712Z" fill="#5C74C6"/>
        <path d="M119.287 70.4059V143.623H84.9521V70.4059C84.9527 63.5105 86.6588 56.7207 89.9207 50.6322L98.8852 33.9063C99.1966 33.3224 99.6626 32.8338 100.233 32.493C100.803 32.1522 101.456 31.9722 102.122 31.9722C102.788 31.9722 103.441 32.1522 104.012 32.493C104.582 32.8338 105.048 33.3224 105.359 33.9063L114.317 50.6322C117.58 56.7206 119.286 63.5105 119.287 70.4059Z" fill="url(#paint10_linear_617_4750)"/>
        <path d="M102.116 73.9112C106.184 73.9112 109.481 70.6389 109.481 66.6023C109.481 62.5657 106.184 59.2935 102.116 59.2935C98.0477 59.2935 94.75 62.5657 94.75 66.6023C94.75 70.6389 98.0477 73.9112 102.116 73.9112Z" fill="white"/>
        <path d="M102.117 62.7041L102.598 63.5769C103.191 64.6523 104.082 65.5365 105.166 66.1247L106.045 66.6018L105.166 67.0789C104.082 67.6671 103.191 68.5513 102.598 69.6267L102.117 70.4995L101.637 69.6267C101.044 68.5513 100.153 67.6671 99.069 67.0789L98.1895 66.6018L99.069 66.1247C100.153 65.5365 101.044 64.6523 101.637 63.5769L102.117 62.7041Z" fill="#2E419B"/>
        <path opacity="0.17" d="M84.9497 81.9971L75.1152 137.47H84.9497V81.9971Z" fill="url(#paint11_linear_617_4750)"/>
        <path opacity="0.43" d="M119.285 81.9971L129.12 137.47H119.285V81.9971Z" fill="url(#paint12_linear_617_4750)"/>
        <path d="M111.77 160.742H93.8725C93.4766 160.742 93.0856 160.656 92.7266 160.49C92.3677 160.325 92.0496 160.083 91.7947 159.783C91.5397 159.482 91.354 159.13 91.2506 158.751C91.1472 158.372 91.1285 157.975 91.1959 157.588L93.6261 143.624H112.015L114.446 157.588C114.513 157.975 114.494 158.371 114.391 158.751C114.288 159.13 114.102 159.482 113.847 159.782C113.592 160.083 113.274 160.324 112.915 160.49C112.557 160.656 112.166 160.742 111.77 160.742Z" fill="url(#paint13_linear_617_4750)"/>
        <path d="M102.116 88.2043C104.124 88.2043 105.752 86.5894 105.752 84.5973C105.752 82.6052 104.124 80.9902 102.116 80.9902C100.109 80.9902 98.4814 82.6052 98.4814 84.5973C98.4814 86.5894 100.109 88.2043 102.116 88.2043Z" fill="#A1BFF1"/>
        <path d="M102.118 96.6826C103.455 96.6826 104.539 95.6071 104.539 94.2805C104.539 92.9539 103.455 91.8784 102.118 91.8784C100.781 91.8784 99.6973 92.9539 99.6973 94.2805C99.6973 95.6071 100.781 96.6826 102.118 96.6826Z" fill="#5C74C6"/>
        <path opacity="0.19" d="M110.161 143.624H105.847L102.403 101.604L110.161 143.624Z" fill="url(#paint14_linear_617_4750)"/>
        <path d="M102.404 98.6323L97.8319 144.694C97.7645 145.33 97.8325 145.973 98.0316 146.581C98.2307 147.189 98.5563 147.748 98.9874 148.224C99.4185 148.699 99.9455 149.079 100.534 149.339C101.123 149.599 101.76 149.733 102.404 149.733C103.048 149.733 103.685 149.598 104.274 149.338C104.862 149.078 105.389 148.698 105.82 148.223C106.251 147.748 106.576 147.188 106.775 146.58C106.974 145.972 107.042 145.33 106.975 144.694L102.404 98.6323Z" fill="url(#paint15_linear_617_4750)"/>
        <path opacity="0.23" d="M94.8159 140.865C95.0867 142.032 95.8423 142.84 96.2726 143.623H84.9521V70.4057C84.9527 63.5104 86.6588 56.7205 89.9207 50.6321L98.8852 33.9061C99.1943 33.3198 99.6604 32.8294 100.232 32.4888C100.804 32.1483 101.459 31.9707 102.126 31.9757C98.0504 42.9629 94.9092 54.2695 92.7354 65.7771C87.8805 91.5136 88.6867 114.455 94.8159 140.865Z" fill="url(#paint16_linear_617_4750)"/>
        <path d="M174.709 180.63C174.709 189.662 167.329 196.983 158.229 196.983H112.551C111.275 196.983 110.022 196.64 108.926 195.992C107.829 195.344 106.929 194.414 106.321 193.301C105.712 192.187 105.418 190.932 105.47 189.666C105.521 188.401 105.915 187.172 106.612 186.111C107.308 185.049 108.28 184.194 109.426 183.635C110.571 183.077 111.847 182.835 113.12 182.936C114.392 183.037 115.613 183.478 116.654 184.21C117.695 184.943 118.518 185.941 119.035 187.099C118.594 184.16 119.311 181.166 121.036 178.737C122.76 176.308 125.361 174.631 128.298 174.054C131.235 173.477 134.283 174.043 136.811 175.636C139.338 177.229 141.151 179.726 141.873 182.61C141.793 181.953 141.752 181.291 141.752 180.629C141.752 176.293 143.488 172.134 146.578 169.068C149.668 166.002 153.859 164.28 158.229 164.279C167.329 164.279 174.709 171.598 174.709 180.63Z" fill="url(#paint17_linear_617_4750)"/>
        <path d="M99.0532 189.948C99.0547 190.929 98.8478 191.9 98.4461 192.796C97.8912 194.043 96.9832 195.102 95.8326 195.845C94.682 196.588 93.3384 196.983 91.9655 196.982H46.2843C37.188 196.982 29.8066 189.661 29.8066 180.628C29.8066 180.086 29.8343 179.553 29.8856 179.026C29.9776 178.077 30.1544 177.138 30.4138 176.221V176.214C32.3569 169.331 38.7269 164.28 46.2835 164.28C46.8252 164.28 47.3605 164.305 47.8879 164.359C51.9608 164.756 55.7393 166.642 58.4888 169.649C61.2383 172.657 62.7623 176.572 62.7644 180.633C62.7626 181.295 62.7223 181.956 62.6436 182.612C63.3672 179.731 65.1803 177.236 67.7072 175.644C70.2341 174.053 73.2811 173.487 76.2169 174.064C79.1527 174.641 81.7522 176.317 83.4769 178.744C85.2016 181.171 85.9192 184.164 85.481 187.102C86.1395 185.627 87.2885 184.422 88.7357 183.688C90.1828 182.953 91.8402 182.735 93.4304 183.069C95.0205 183.402 96.4468 184.268 97.4704 185.521C98.494 186.774 99.0528 188.337 99.0532 189.95V189.948Z" fill="url(#paint18_linear_617_4750)"/>
        <path opacity="0.64" d="M95.6787 195.943C94.5628 196.624 93.2781 196.985 91.9679 196.984H46.2843C37.188 196.984 29.8066 189.664 29.8066 180.63C29.8066 180.089 29.8343 179.555 29.8856 179.028L30.4138 176.223V176.216C30.462 176.514 33.0603 192.098 46.218 192.098C59.5036 192.098 62.6404 182.609 62.6404 182.609C62.6404 182.609 61.9196 194.324 72.4441 194.324C82.9687 194.324 85.4779 187.099 85.4779 187.099C85.4779 187.099 88.0905 193.405 95.6787 195.943Z" fill="url(#paint19_linear_617_4750)"/>
        <path opacity="0.64" d="M108.829 195.943C109.945 196.624 111.23 196.985 112.54 196.984H158.223C167.32 196.984 174.701 189.664 174.701 180.63C174.701 180.089 174.674 179.555 174.622 179.028L174.094 176.223V176.216C174.046 176.514 171.447 192.098 158.29 192.098C145.004 192.098 141.867 182.609 141.867 182.609C141.867 182.609 142.588 194.324 132.064 194.324C121.539 194.324 119.03 187.099 119.03 187.099C119.03 187.099 116.417 193.405 108.829 195.943Z" fill="url(#paint20_linear_617_4750)"/>
        <path opacity="0.58" d="M102.279 160.741C102.279 160.741 102.516 192.785 110.623 196.985H92.5918C92.5918 196.985 101.311 191.798 102.279 160.741Z" fill="url(#paint21_linear_617_4750)"/>
    </g>
    <defs>
        <linearGradient id="paint0_linear_617_4750" x1="50.6701" y1="119.508" x2="40.3897" y2="72.269" gradientUnits="userSpaceOnUse">
            <stop stop-color="#D6E6FD"/>
            <stop offset="1" stop-color="#D2E3FD"/>
        </linearGradient>
        <linearGradient id="paint1_linear_617_4750" x1="150.246" y1="68.0631" x2="170.994" y2="81.4505" gradientUnits="userSpaceOnUse">
            <stop stop-color="#D6E6FD"/>
            <stop offset="1" stop-color="#D2E3FD"/>
        </linearGradient>
        <linearGradient id="paint2_linear_617_4750" x1="112.311" y1="252.733" x2="293.882" y2="163.784" gradientUnits="userSpaceOnUse">
            <stop stop-color="#D6E6FD"/>
            <stop offset="1" stop-color="#D2E3FD"/>
        </linearGradient>
        <linearGradient id="paint3_linear_617_4750" x1="149.2" y1="40.8301" x2="148.744" y2="51.1807" gradientUnits="userSpaceOnUse">
            <stop stop-color="#373282"/>
            <stop offset="1" stop-color="#2E419B"/>
        </linearGradient>
        <linearGradient id="paint4_linear_617_4750" x1="168.664" y1="32.2623" x2="168.664" y2="24.1379" gradientUnits="userSpaceOnUse">
            <stop stop-color="#373282"/>
            <stop offset="1" stop-color="#2E419B"/>
        </linearGradient>
        <linearGradient id="paint5_linear_617_4750" x1="180.691" y1="148.386" x2="174.719" y2="154.879" gradientUnits="userSpaceOnUse">
            <stop stop-color="#373282"/>
            <stop offset="0.44" stop-color="#323A8F"/>
            <stop offset="1" stop-color="#2E419B"/>
        </linearGradient>
        <linearGradient id="paint6_linear_617_4750" x1="164.991" y1="149.262" x2="159.018" y2="155.755" gradientUnits="userSpaceOnUse">
            <stop stop-color="#373282"/>
            <stop offset="0.44" stop-color="#323A8F"/>
            <stop offset="1" stop-color="#2E419B"/>
        </linearGradient>
        <linearGradient id="paint7_linear_617_4750" x1="63.1961" y1="23.5242" x2="57.9489" y2="29.2267" gradientUnits="userSpaceOnUse">
            <stop stop-color="#373282"/>
            <stop offset="0.44" stop-color="#323A8F"/>
            <stop offset="1" stop-color="#2E419B"/>
        </linearGradient>
        <linearGradient id="paint8_linear_617_4750" x1="49.4155" y1="24.3206" x2="44.1693" y2="30.0239" gradientUnits="userSpaceOnUse">
            <stop stop-color="#373282"/>
            <stop offset="0.44" stop-color="#323A8F"/>
            <stop offset="1" stop-color="#2E419B"/>
        </linearGradient>
        <linearGradient id="paint9_linear_617_4750" x1="101.61" y1="135.021" x2="103.835" y2="189.059" gradientUnits="userSpaceOnUse">
            <stop stop-color="#FD9271"/>
            <stop offset="1" stop-color="#FED4C4"/>
        </linearGradient>
        <linearGradient id="paint10_linear_617_4750" x1="173.086" y1="133.77" x2="206.599" y2="126.362" gradientUnits="userSpaceOnUse">
            <stop stop-color="#D6E6FD"/>
            <stop offset="1" stop-color="#D2E3FD"/>
        </linearGradient>
        <linearGradient id="paint11_linear_617_4750" x1="80.0325" y1="148.178" x2="80.0325" y2="82.5471" gradientUnits="userSpaceOnUse">
            <stop stop-color="#5C75C9"/>
            <stop offset="1" stop-color="#2E419B"/>
        </linearGradient>
        <linearGradient id="paint12_linear_617_4750" x1="124.203" y1="148.178" x2="124.203" y2="82.5471" gradientUnits="userSpaceOnUse">
            <stop stop-color="#5C75C9"/>
            <stop offset="1" stop-color="#2E419B"/>
        </linearGradient>
        <linearGradient id="paint13_linear_617_4750" x1="-477.466" y1="938.007" x2="-477.466" y2="959.885" gradientUnits="userSpaceOnUse">
            <stop stop-color="#373282"/>
            <stop offset="0.44" stop-color="#323A8F"/>
            <stop offset="1" stop-color="#2E419B"/>
        </linearGradient>
        <linearGradient id="paint14_linear_617_4750" x1="106.282" y1="143.624" x2="106.282" y2="101.604" gradientUnits="userSpaceOnUse">
            <stop stop-color="#5C75C9"/>
            <stop offset="1" stop-color="#2E419B"/>
        </linearGradient>
        <linearGradient id="paint15_linear_617_4750" x1="102.404" y1="144.557" x2="102.404" y2="96.0211" gradientUnits="userSpaceOnUse">
            <stop stop-color="#5C75C9"/>
            <stop offset="1" stop-color="#2E419B"/>
        </linearGradient>
        <linearGradient id="paint16_linear_617_4750" x1="93.5376" y1="147.983" x2="93.5376" y2="38.4353" gradientUnits="userSpaceOnUse">
            <stop stop-color="#5C75C9"/>
            <stop offset="1" stop-color="#D2E3FD"/>
        </linearGradient>
        <linearGradient id="paint17_linear_617_4750" x1="135.865" y1="85.9722" x2="140.169" y2="188.699" gradientUnits="userSpaceOnUse">
            <stop stop-color="#FD9271"/>
            <stop offset="1" stop-color="#FED4C4"/>
        </linearGradient>
        <linearGradient id="paint18_linear_617_4750" x1="60.335" y1="89.1352" x2="64.6389" y2="191.865" gradientUnits="userSpaceOnUse">
            <stop stop-color="#FD9271"/>
            <stop offset="1" stop-color="#FED4C4"/>
        </linearGradient>
        <linearGradient id="paint19_linear_617_4750" x1="26.0019" y1="151.369" x2="79.378" y2="210.505" gradientUnits="userSpaceOnUse">
            <stop stop-color="#FD9271"/>
            <stop offset="1" stop-color="#FED4C4"/>
        </linearGradient>
        <linearGradient id="paint20_linear_617_4750" x1="178.506" y1="151.369" x2="125.13" y2="210.505" gradientUnits="userSpaceOnUse">
            <stop stop-color="#FD9271"/>
            <stop offset="1" stop-color="#FED4C4"/>
        </linearGradient>
        <linearGradient id="paint21_linear_617_4750" x1="101.608" y1="267.715" x2="101.608" y2="135.649" gradientUnits="userSpaceOnUse">
            <stop stop-color="#FD9271"/>
            <stop offset="1" stop-color="#FED4C4"/>
        </linearGradient>
        <clipPath id="clip0_617_4750">
            <rect width="202.192" height="199.345" fill="white" transform="translate(0.90332 0.143066)"/>
        </clipPath>
    </defs>
</svg>
