<svg width="208" height="180" viewBox="0 0 208 180" fill="none" xmlns="http://www.w3.org/2000/svg">
    <g clip-path="url(#clip0_621_3707)">
        <path d="M178.606 102.343C177.514 104.404 176.119 106.289 174.467 107.935L171.696 110.714L169.563 112.843L167.422 114.983L138.23 144.176L124.926 157.486C115.791 166.622 100.971 166.622 91.8353 157.486L58.9001 124.543L49.3387 114.983L47.1949 112.84L42.2906 107.936C33.1551 98.8005 33.1551 83.9872 42.2906 74.8517L55.601 61.5489L89.061 28.082L91.8326 25.3111C94.0053 23.1382 96.5848 21.4146 99.4237 20.2387C102.263 19.0628 105.305 18.4575 108.378 18.4575C111.451 18.4575 114.494 19.0628 117.333 20.2387C120.171 21.4146 122.751 23.1382 124.924 25.3111L131.827 32.2142L174.465 74.8524C181.909 82.2933 183.291 93.5053 178.606 102.343Z" fill="#F0F5FD"/>
        <path opacity="0.48" d="M178.606 102.343C177.514 104.404 176.119 106.289 174.467 107.935L171.696 110.714L169.563 112.843L167.422 114.983L138.23 144.176L124.926 157.486C115.791 166.622 100.971 166.622 91.8352 157.486C176.949 112.105 108.377 18.4614 108.377 18.4614C111.451 18.4571 114.496 19.0603 117.336 20.2365C120.176 21.4127 122.756 23.1387 124.926 25.3151L131.83 32.2183L174.468 74.8564C181.909 82.2933 183.291 93.5052 178.606 102.343Z" fill="url(#paint0_linear_621_3707)"/>
        <path d="M44.8647 44.0522H23.1538C10.9349 44.0522 0.516281 34.0588 0.624121 21.8399C0.723032 9.45817 11.0359 -0.483743 23.5591 0.0176804C35.133 0.478577 44.4883 10.075 44.6724 21.6544C44.7634 26.4862 43.256 31.2127 40.3842 35.0994L44.8647 44.0522Z" fill="#FD9271"/>
        <path d="M44.8647 44.0522H23.1538C10.9349 44.0522 0.516281 34.0588 0.624121 21.8399C0.723032 9.45817 11.0359 -0.483743 23.5591 0.0176804C-2.84806 25.887 44.8647 44.0522 44.8647 44.0522Z" fill="url(#paint1_linear_621_3707)"/>
        <path d="M33.6119 32.5685C33.613 32.9631 33.4778 33.346 33.2291 33.6524C32.9804 33.9588 32.6335 34.1699 32.2471 34.25H32.2333C30.917 34.5167 29.5767 34.6474 28.2336 34.6401C27.669 34.6401 27.1044 34.6401 26.5528 34.5584C18.3789 33.3158 12.9141 28.0488 11.0692 20.8338C10.9112 20.2156 10.848 19.5851 10.7841 18.9634C10.7223 18.3681 10.6877 17.7754 10.6804 17.1851C10.6627 15.8429 10.7847 14.5024 11.0444 13.1854C11.1225 12.7963 11.333 12.4462 11.6401 12.1948C11.9471 11.9433 12.3318 11.806 12.7287 11.8062H16.6082C16.7484 11.8061 16.8872 11.8352 17.0156 11.8916C17.1441 11.9481 17.2594 12.0305 17.3542 12.1339C17.4491 12.2372 17.5215 12.3591 17.5667 12.4919C17.612 12.6247 17.6292 12.7654 17.6172 12.9052L17.1783 18.0368C17.1568 18.2896 17.0411 18.5251 16.8543 18.6967C16.6674 18.8683 16.4229 18.9635 16.1693 18.9634H14.2934C16.1184 26.0864 19.796 29.4576 26.5542 31.1707V29.2186C26.5542 28.9643 26.6499 28.7194 26.8222 28.5325C26.9945 28.3455 27.2308 28.2302 27.4842 28.2095L32.5191 27.7974C32.6585 27.786 32.7988 27.8037 32.9311 27.8492C33.0633 27.8947 33.1847 27.9672 33.2876 28.062C33.3905 28.1568 33.4726 28.2719 33.5288 28.4C33.5849 28.5282 33.6139 28.6665 33.614 28.8064L33.6119 32.5685Z" fill="white"/>
        <g opacity="0.8">
            <path opacity="0.77" d="M89.2926 96.3354H57.0284C54.4139 96.3354 52.2944 98.4549 52.2944 101.069V126.862C52.2944 129.476 54.4139 131.596 57.0284 131.596H89.2926C91.9071 131.596 94.0266 129.476 94.0266 126.862V101.069C94.0266 98.4549 91.9071 96.3354 89.2926 96.3354Z" fill="url(#paint2_linear_621_3707)"/>
            <path opacity="0.77" d="M155.573 48.0605H123.309C120.694 48.0605 118.575 50.18 118.575 52.7945V78.5869C118.575 81.2014 120.694 83.3209 123.309 83.3209H155.573C158.188 83.3209 160.307 81.2014 160.307 78.5869V52.7945C160.307 50.18 158.188 48.0605 155.573 48.0605Z" fill="url(#paint3_linear_621_3707)"/>
            <path opacity="0.77" d="M125.78 65.4214H88.941C86.3265 65.4214 84.207 67.5409 84.207 70.1554V110.873C84.207 113.487 86.3265 115.607 88.941 115.607H125.78C128.395 115.607 130.514 113.487 130.514 110.873V70.1554C130.514 67.5409 128.395 65.4214 125.78 65.4214Z" fill="url(#paint4_linear_621_3707)"/>
        </g>
        <path d="M83.6346 90.6777H51.3705C48.7559 90.6777 46.6365 92.7972 46.6365 95.4117V121.204C46.6365 123.819 48.7559 125.938 51.3705 125.938H83.6346C86.2491 125.938 88.3686 123.819 88.3686 121.204V95.4117C88.3686 92.7972 86.2491 90.6777 83.6346 90.6777Z" fill="url(#paint5_linear_621_3707)"/>
        <path d="M69.2973 112.262C69.2973 112.262 67.0993 111.52 66.2593 111.19C65.7214 110.978 65.2715 110.603 65.253 110.033C65.3565 109.929 65.4486 109.814 65.5277 109.69L66.0855 108.822C66.3932 108.345 66.5817 107.801 66.635 107.235C66.7799 107.199 66.8582 107.111 66.9427 106.977C66.9506 106.965 66.9575 106.952 66.9633 106.938L67.3067 106.124C67.3974 105.86 67.2703 105.575 66.9997 105.437L66.9654 105.42C66.9161 105.395 66.862 105.382 66.807 105.382C66.7521 105.382 66.6979 105.395 66.6487 105.42V104.005C66.6487 103.519 66.8486 102.294 66.115 101.786C64.9473 100.98 62.6202 100.829 62.0088 101.842C60.1611 101.56 60.1611 102.948 60.1611 104.143L60.2779 105.385C60.2174 105.383 60.1573 105.396 60.1034 105.424L60.0691 105.442C59.7985 105.579 59.6714 105.865 59.762 106.128L60.1055 106.942C60.1113 106.956 60.1182 106.969 60.1261 106.982C60.2113 107.119 60.2896 107.204 60.4359 107.24C60.4939 107.811 60.6898 108.36 61.0067 108.839L61.5802 109.711C61.6881 109.874 61.8183 110.022 61.9669 110.149C61.8934 110.653 61.4758 110.998 60.9675 111.183C60.1797 111.47 57.7969 112.274 57.7969 112.274C57.2069 112.477 56.695 112.859 56.3326 113.367C55.9702 113.874 55.7754 114.483 55.7754 115.107V115.49H71.2852V115.089C71.2865 114.47 71.096 113.866 70.7401 113.36C70.3841 112.853 69.8801 112.47 69.2973 112.262Z" fill="white"/>
        <path d="M149.915 42.4023H117.651C115.036 42.4023 112.917 44.5218 112.917 47.1363V72.9287C112.917 75.5432 115.036 77.6627 117.651 77.6627H149.915C152.53 77.6627 154.649 75.5432 154.649 72.9287V47.1363C154.649 44.5218 152.53 42.4023 149.915 42.4023Z" fill="url(#paint6_linear_621_3707)"/>
        <path d="M144.694 63.9891C144.694 63.9891 142.496 63.2473 141.655 62.9176C141.118 62.706 140.668 62.3303 140.649 61.7609C140.753 61.6565 140.845 61.5414 140.924 61.4174L141.482 60.5499C141.789 60.0725 141.978 59.5281 142.031 58.9625C142.176 58.9268 142.254 58.8389 142.339 58.7049C142.347 58.6925 142.354 58.6794 142.36 58.6658L142.703 57.8518C142.794 57.5874 142.667 57.3023 142.396 57.165L142.362 57.1471C142.312 57.1227 142.258 57.11 142.203 57.11C142.148 57.11 142.094 57.1227 142.045 57.1471V55.7321C142.045 55.2465 142.245 54.0211 141.511 53.5135C140.344 52.7071 138.016 52.5567 137.405 53.5698C135.557 53.2875 135.557 54.6757 135.557 55.8702L135.674 57.1128C135.614 57.1104 135.554 57.1237 135.5 57.1512L135.465 57.1691C135.195 57.3065 135.068 57.5929 135.158 57.856L135.502 58.6699C135.508 58.6835 135.514 58.6966 135.522 58.7091C135.607 58.8465 135.686 58.9316 135.832 58.9673C135.89 59.5387 136.086 60.0874 136.403 60.5664L136.976 61.4387C137.084 61.6019 137.214 61.7492 137.363 61.8763C137.29 62.3805 136.872 62.7253 136.364 62.9107C135.576 63.1978 133.193 64.0015 133.193 64.0015C132.603 64.2043 132.091 64.5863 131.729 65.0942C131.366 65.602 131.172 66.2103 131.172 66.8342V67.2175H146.681V66.8163C146.683 66.1975 146.492 65.5934 146.136 65.0871C145.78 64.5809 145.276 64.1973 144.694 63.9891Z" fill="white"/>
        <path d="M121.389 58.0381H82.0163C79.222 58.0381 76.9568 60.3033 76.9568 63.0976V106.616C76.9568 109.41 79.222 111.675 82.0163 111.675H121.389C124.183 111.675 126.449 109.41 126.449 106.616V63.0976C126.449 60.3033 124.183 58.0381 121.389 58.0381Z" fill="url(#paint7_linear_621_3707)"/>
        <path d="M110.643 91.5858C110.643 91.5858 107.228 90.4339 105.923 89.9215C105.088 89.5932 104.39 89.0093 104.36 88.1253C104.522 87.9641 104.665 87.7861 104.789 87.5944L105.655 86.2467C106.135 85.5055 106.429 84.6597 106.513 83.7808C106.738 83.7252 106.857 83.5892 106.994 83.3804C107.006 83.3611 107.017 83.3409 107.026 83.3199L107.564 82.0561C107.705 81.6439 107.508 81.2016 107.088 80.9873L107.034 80.9598C106.958 80.9212 106.874 80.9006 106.789 80.8998C106.703 80.8989 106.619 80.9178 106.542 80.955V78.757C106.542 78.0014 106.853 76.0994 105.713 75.3109C103.903 74.058 100.287 73.8245 99.3355 75.3988C96.4657 74.9606 96.4657 77.116 96.4657 78.9706L96.647 80.9C96.5532 80.8963 96.4601 80.9166 96.3764 80.9591L96.3228 80.9866C95.9031 81.2009 95.7046 81.6446 95.8461 82.0554L96.3846 83.3192C96.3935 83.3402 96.4041 83.3604 96.4162 83.3797C96.5481 83.5892 96.6704 83.7231 96.897 83.7808C96.9872 84.6683 97.2915 85.5206 97.7838 86.2646L98.6767 87.6198C98.8444 87.8732 99.0467 88.1018 99.2778 88.2991C99.163 89.0815 98.5153 89.6179 97.7261 89.905C96.5027 90.3508 92.8012 91.5996 92.8012 91.5996C91.8849 91.9148 91.0899 92.5083 90.5272 93.2971C89.9645 94.0859 89.662 95.0308 89.6621 95.9997V96.5953H113.752V95.9723C113.752 95.0092 113.452 94.0701 112.895 93.2844C112.338 92.4988 111.551 91.9053 110.643 91.5858Z" fill="white"/>
        <path d="M114.591 97.1475C115.827 96.1756 117.056 96.3693 117.938 96.8522C118.82 97.335 121.311 101.162 121.281 101.957C121.251 102.752 118.356 105.182 117.477 105.087C116.304 104.96 114.032 101.597 113.551 100.554C113.07 99.5104 113.156 98.274 114.591 97.1475Z" fill="url(#paint8_linear_621_3707)"/>
        <path d="M207.376 164.025L193.77 172.104L193.762 172.108L184.717 177.483L184.713 177.487L180.869 179.77C180.869 179.77 170.296 171.452 167.249 170.333C164.202 169.213 159.586 167.269 157.511 166.481C154.679 165.426 143.25 158.044 142.45 157.228C139.215 153.916 135.108 150.581 131.992 148.273C131.969 148.259 131.946 148.243 131.924 148.225C129.92 146.746 128.337 145.698 127.673 145.366C127.307 145.193 126.932 145.042 126.549 144.914C123.709 143.994 120.234 144.238 119.69 142.807C119.672 142.751 119.657 142.693 119.646 142.635C119.291 140.831 123.75 135.985 129.356 137.42C130.416 137.695 131.587 138.14 132.791 138.692L132.795 138.696H132.802C137.701 140.943 143.144 144.878 143.708 145.29L143.756 145.325C143.756 145.325 141.297 140.574 139.257 137.751C137.218 134.944 127.54 122.275 125.588 119.591C123.636 116.908 115.871 106.083 114.963 104.247C114.055 102.412 111.791 99.2961 114.59 97.149C117.178 95.1494 120.325 97.2128 122.5 99.9521C124.676 102.691 131.747 111.492 134.506 114.816C136.369 117.083 139.409 120.311 141.624 122.738C141.624 120.682 141.418 118.754 143.748 117.288C145.167 116.395 146.527 116.436 147.695 116.868H147.699C149.842 117.66 151.334 119.763 151.334 119.763C151.334 119.763 150.214 116.316 153.713 114.584C157.12 112.896 159.788 117.255 159.916 117.459C159.872 117.299 159.091 114.464 161.143 113.241C164.266 111.365 169.301 118.787 169.301 118.787C171.109 120.985 174.536 125.881 175.696 127.641C177.524 130.396 183.85 145.669 185.406 147.676C186.961 149.683 207.376 164.025 207.376 164.025Z" fill="#FCD1C4"/>
        <path d="M127.05 142.911C127.242 143.111 126.994 144.733 126.765 144.903C126.694 144.921 126.622 144.925 126.55 144.916C123.712 143.996 120.237 144.238 119.692 142.806C120.014 142.475 120.572 142.094 121.299 141.835C122.582 141.385 126.867 142.715 127.05 142.911Z" fill="url(#paint9_linear_621_3707)"/>
        <path opacity="0.2" d="M193.77 172.104L193.762 172.108L184.717 177.483L184.713 177.487L180.869 179.77C180.869 179.77 170.296 171.452 167.249 170.333C164.202 169.213 159.586 167.269 157.511 166.481C154.679 165.426 143.25 158.044 142.45 157.228C139.215 153.916 135.108 150.581 131.992 148.273C131.969 148.259 131.946 148.243 131.924 148.225C129.92 146.746 128.337 145.698 127.673 145.366C127.307 145.193 126.932 145.042 126.549 144.914C123.709 143.994 120.234 144.238 119.69 142.807C119.672 142.751 119.657 142.693 119.646 142.635C119.291 140.831 123.75 135.985 129.356 137.42C130.416 137.695 131.587 138.14 132.791 138.692L132.795 138.696H132.802C137.701 140.943 143.144 144.878 143.708 145.29L143.756 145.325C143.756 145.325 141.297 140.574 139.257 137.751C137.218 134.944 127.54 122.275 125.588 119.591C123.636 116.908 115.871 106.083 114.963 104.247C114.055 102.412 111.791 99.2961 114.59 97.149C117.178 95.1494 120.325 97.2128 122.5 99.9521C124.676 102.691 131.747 111.492 134.506 114.816C136.369 117.083 139.409 120.311 141.624 122.738C141.624 120.682 141.418 118.754 143.748 117.288C145.167 116.395 146.527 116.436 147.694 116.868H147.699C148.855 122.088 150.382 132.436 155.977 146.198C163.578 164.892 193.77 172.104 193.77 172.104Z" fill="url(#paint10_linear_621_3707)"/>
        <path d="M184.717 177.482L184.713 177.486L180.869 179.769C180.869 179.769 170.296 171.451 167.249 170.331C164.202 169.212 159.586 167.268 157.511 166.48C154.679 165.424 143.25 158.042 142.45 157.226C139.215 153.915 135.108 150.58 131.992 148.272C159.974 166.88 162.284 163.541 168.576 164.304C175.175 165.105 184.717 177.482 184.717 177.482Z" fill="url(#paint11_linear_621_3707)"/>
        <path d="M146.434 153.707C146.234 153.501 143.471 150.524 142.151 147.477C140.8 144.366 133.042 138.867 132.797 138.695H132.805C137.704 140.942 143.147 144.877 143.711 145.289C143.686 149.456 146.274 153.463 146.434 153.707Z" fill="url(#paint12_linear_621_3707)"/>
    </g>
    <defs>
        <linearGradient id="paint0_linear_621_3707" x1="136.577" y1="35.5023" x2="136.577" y2="243.729" gradientUnits="userSpaceOnUse">
            <stop stop-color="#D6E6FD"/>
            <stop offset="1" stop-color="#D2E3FD"/>
        </linearGradient>
        <linearGradient id="paint1_linear_621_3707" x1="22.5837" y1="33.453" x2="5.57377" y2="-44.0368" gradientUnits="userSpaceOnUse">
            <stop stop-color="#FD9271"/>
            <stop offset="1" stop-color="#FED4C4"/>
        </linearGradient>
        <linearGradient id="paint2_linear_621_3707" x1="53.8564" y1="113.966" x2="116.656" y2="113.966" gradientUnits="userSpaceOnUse">
            <stop stop-color="#D6E6FD"/>
            <stop offset="1" stop-color="#D2E3FD"/>
        </linearGradient>
        <linearGradient id="paint3_linear_621_3707" x1="156.792" y1="65.6907" x2="108.224" y2="65.6907" gradientUnits="userSpaceOnUse">
            <stop stop-color="#D6E6FD"/>
            <stop offset="1" stop-color="#D2E3FD"/>
        </linearGradient>
        <linearGradient id="paint4_linear_621_3707" x1="107.361" y1="-8.02058" x2="107.361" y2="127.985" gradientUnits="userSpaceOnUse">
            <stop stop-color="#D6E6FD"/>
            <stop offset="1" stop-color="#D2E3FD"/>
        </linearGradient>
        <linearGradient id="paint5_linear_621_3707" x1="48.1991" y1="108.308" x2="110.998" y2="108.308" gradientUnits="userSpaceOnUse">
            <stop stop-color="#5C75C9"/>
            <stop offset="1" stop-color="#2E419B"/>
        </linearGradient>
        <linearGradient id="paint6_linear_621_3707" x1="151.134" y1="60.0325" x2="102.567" y2="60.0325" gradientUnits="userSpaceOnUse">
            <stop stop-color="#5C75C9"/>
            <stop offset="1" stop-color="#2E419B"/>
        </linearGradient>
        <linearGradient id="paint7_linear_621_3707" x1="101.703" y1="-20.4552" x2="101.703" y2="124.904" gradientUnits="userSpaceOnUse">
            <stop stop-color="#5C75C9"/>
            <stop offset="1" stop-color="#D2E3FD"/>
        </linearGradient>
        <linearGradient id="paint8_linear_621_3707" x1="113.135" y1="99.7435" x2="121.325" y2="101.83" gradientUnits="userSpaceOnUse">
            <stop stop-color="#FD9271"/>
            <stop offset="1" stop-color="#FED4C4" stop-opacity="0"/>
        </linearGradient>
        <linearGradient id="paint9_linear_621_3707" x1="45.3306" y1="252.027" x2="26.8238" y2="238.903" gradientUnits="userSpaceOnUse">
            <stop stop-color="#FD9271"/>
            <stop offset="1" stop-color="#FED4C4" stop-opacity="0"/>
        </linearGradient>
        <linearGradient id="paint10_linear_621_3707" x1="172.462" y1="325.053" x2="-81.3438" y2="145.058" gradientUnits="userSpaceOnUse">
            <stop stop-color="#FD9271"/>
            <stop offset="1" stop-color="#FED4C4" stop-opacity="0"/>
        </linearGradient>
        <linearGradient id="paint11_linear_621_3707" x1="25.1116" y1="223.098" x2="103.705" y2="318.498" gradientUnits="userSpaceOnUse">
            <stop stop-color="#FD9271"/>
            <stop offset="1" stop-color="#FED4C4" stop-opacity="0"/>
        </linearGradient>
        <linearGradient id="paint12_linear_621_3707" x1="63.5676" y1="267.227" x2="47.4601" y2="244.994" gradientUnits="userSpaceOnUse">
            <stop stop-color="#FD9271"/>
            <stop offset="1" stop-color="#FED4C4" stop-opacity="0"/>
        </linearGradient>
        <clipPath id="clip0_621_3707">
            <rect width="206.751" height="179.769" fill="white" transform="translate(0.624512)"/>
        </clipPath>
    </defs>
</svg>
