<svg width="171" height="170" viewBox="0 0 171 170" fill="none" xmlns="http://www.w3.org/2000/svg">
    <path d="M133.733 58.1152C133.729 58.1152 133.726 58.1193 133.723 58.1193C123.734 58.1268 115.304 65.1981 113.563 74.9831H94.647C93.7129 68.9549 91.3427 63.1762 87.7702 58.2559C87.7699 58.2556 87.7704 58.2561 87.7702 58.2559C80.4863 48.1912 68.7265 42.1812 56.314 42.1812C34.7118 42.1812 17.501 59.6659 17.501 80.9825C17.501 101.093 32.9869 118.163 53.4233 119.682C53.0917 129.573 60.6143 135.181 66.9169 133.45C68.5259 138.517 72.5379 142.603 77.4644 144.161C82.6171 145.774 88.6298 144.512 92.8721 140.929C101.644 147.488 118.001 144.146 121.571 132.367C129.095 134.98 141.863 128.404 144.753 116.314C146.26 110.028 144.698 102.994 140.707 97.812C148.569 94.9522 154.209 87.427 154.209 78.5891C154.209 67.245 144.969 58.1152 133.733 58.1152ZM87.2037 74.9831C87.3097 68.5929 81.4049 64.7596 76.1757 68.1027C76.4559 68.1072 76.7414 68.0954 77.0079 68.14C80.0284 68.5835 82.6579 71.0636 83.2048 74.9831H82.4987C81.9649 71.4453 79.6013 69.2321 76.8993 68.8357C75.8134 68.6565 75.6628 68.9369 75.4359 68.6297C71.2114 72.0058 70.3993 78.9533 74.4452 82.6011C74.6283 82.7701 74.8113 82.9248 75.0084 83.0515C74.9496 83.4214 75.4475 80.2932 72.573 98.3535C72.3477 99.7753 73.7834 101.211 75.1772 101L79.9519 100.258C79.9395 100.181 79.9398 100.1 79.9813 100.027C80.2193 99.6164 80.3059 99.114 80.2331 98.5751C78.4641 83.8733 78.2674 84.3463 78.6136 84.1157C79.0432 83.8266 79.3865 83.4702 79.6155 83.2507H80.3268V83.5392C80.0852 83.7828 79.6233 84.2577 79.1841 84.5777L80.9314 98.4844C81.0127 99.0853 80.9049 99.6462 80.6763 100.146L82.8776 99.8034C84.2009 99.5922 85.0031 98.438 84.8341 97.0021L84.3728 93.415H85.0458C85.2409 93.415 85.4 93.2565 85.4 93.0608V88.6427H91.7432V93.0608C91.7432 93.2565 91.9023 93.415 92.0973 93.415H92.3266C88.1795 105.442 78.017 115.144 64.7328 118.133C65.9136 115.048 63.6518 111.705 60.3399 111.638C59.4234 111.61 57.8657 112.009 57.306 111.082C57.1386 110.806 57.1165 110.444 57.0916 110.061C56.9633 107.957 55.3833 107.252 53.7284 107.453C52.5312 107.596 51.5545 108.105 50.444 108.277C48.5501 108.57 47.6788 107.299 48.6234 105.974C48.9568 105.513 49.4258 105.163 49.9224 104.792C50.4874 104.289 52.7946 102.832 55.098 99.3466C57.5022 95.7222 55.2427 93.3764 51.7486 94.4837C47.3561 95.86 46.5596 98.8467 44.639 98.6901C43.5905 98.6137 42.8557 97.5551 41.9814 96.7228C39.8674 94.6981 36.5444 94.1586 33.9019 95.4113C32.6084 96.0256 31.3896 97.3468 31.7728 98.798C31.9635 99.5229 32.6492 100.343 32.3552 100.833C32.1434 101.184 31.5127 101.214 30.9814 101.373C28.9501 101.981 28.2246 104.494 29.6312 106.092C30.5878 107.17 31.2584 107.036 30.4671 108.964C21.3075 100.498 17.0788 88.3535 18.4763 76.5485C20.4972 76.2845 21.6702 74.7952 26.2583 73.1202C28.2021 72.4147 29.5592 72.4368 30.4087 73.1832C31.6322 74.2605 31.3448 75.8961 31.6732 83.0155C31.7327 84.576 32.0066 86.7356 33.675 87.4709C35.4072 88.2292 37.2409 86.8805 38.3318 85.3438C41.7662 80.4975 40.2368 77.0659 42.3355 75.7696C43.2322 75.2196 44.4065 75.4459 45.6185 75.4701C51.3788 75.5095 55.4421 70.3724 54.4367 65.0304C54.0623 63.071 53.0141 61.0453 53.7463 59.3188C54.3807 57.8165 56.2684 56.9831 57.3558 55.5689C59.7296 52.4803 57.7834 47.9466 53.8944 47.5559C51.0089 47.2623 48.6135 49.4037 45.891 49.1953C44.7469 49.1061 43.4091 48.3562 43.1822 47.1436C43.079 46.5876 43.2172 45.9789 43.222 45.2156C65.4314 37.0058 90.1661 51.1968 93.9287 74.9831H87.2037ZM68.0873 124.891C69.0657 123.838 70.9861 123.547 71.896 124.627C73.2243 126.177 72.134 130.841 67.3873 132.559C66.7272 130.242 66.45 126.699 68.0873 124.891ZM92.8485 140.011C90.3505 137.966 88.3554 134.407 89.2695 131.381C89.7482 129.768 91.1759 128.536 92.6632 128.452C94.6719 128.363 96.3456 130.269 96.5894 132.227C96.9633 135.094 94.9859 138.101 92.8485 140.011ZM121.096 131.425C116.983 129.72 115.638 125.996 116.47 123.954C117.359 121.795 120.157 121.653 121.12 125.289C121.629 127.227 121.62 129.339 121.096 131.425ZM144.064 116.149C141.249 127.927 128.826 134.176 121.762 131.684C122.336 129.456 122.352 127.189 121.804 125.108C120.661 120.778 116.945 120.943 115.814 123.686C114.823 126.113 116.392 130.291 120.907 132.113C117.534 143.387 101.853 146.609 93.4185 140.451C95.7108 138.369 97.6901 135.188 97.2922 132.137C97.0169 129.927 95.0732 127.633 92.6272 127.745C90.819 127.847 89.1602 129.26 88.5916 131.178C87.5989 134.458 89.636 138.253 92.3035 140.48C88.2541 143.835 82.5639 145.017 77.6775 143.485C72.9709 141.997 69.1346 138.09 67.5934 133.237C72.7801 131.382 74.1398 126.156 72.4355 124.168C71.2373 122.745 68.8232 123.065 67.5658 124.411C65.7344 126.433 65.9716 130.196 66.7122 132.772C60.8209 134.365 53.8278 129.066 54.1313 119.731C72.067 120.736 87.6601 109.475 93.0789 93.415H96.4622C96.6572 93.415 96.8163 93.2565 96.8163 93.0608V83.2507H113.789C116.43 94.5827 128.425 101.813 140.019 98.0643C143.982 103.095 145.538 109.996 144.064 116.149ZM133.738 98.3512C122.961 98.3512 113.966 89.5441 113.966 78.5898C113.966 78.394 113.807 78.2356 113.612 78.2356C113.417 78.2356 113.257 78.394 113.257 78.5898C113.257 79.9424 113.397 81.2623 113.648 82.5423H96.4622C96.2671 82.5423 96.108 82.7007 96.108 82.8965V92.7066H92.4515V88.2885C92.4515 88.0928 92.2924 87.9344 92.0973 87.9344H85.0458C84.8507 87.9344 84.6917 88.0928 84.6917 88.2885V92.7066H81.0352V82.8965C81.0352 82.7007 80.8761 82.5423 80.681 82.5423H78.2032C76.355 82.5423 76.3434 75.6914 78.2032 75.6914H113.862C114.043 75.6914 114.195 75.4911 114.212 75.394C115.778 65.7948 123.99 58.827 133.738 58.827C144.568 58.827 153.498 67.6257 153.498 78.5898C153.498 78.5921 153.501 78.5934 153.501 78.5956C153.497 89.4894 144.633 98.3512 133.738 98.3512Z" fill="#131928"/>
    <path d="M119.959 78.5896C119.959 70.9775 126.121 64.8164 133.733 64.8164C141.332 64.8164 147.506 70.9775 147.506 78.5896C147.506 86.189 141.332 92.3627 133.733 92.3627C126.121 92.3627 119.959 86.189 119.959 78.5896Z" fill="#131928"/>
    <path d="M93.2956 49.9274C93.4118 49.9274 93.5266 49.87 93.593 49.7649C95.7249 46.4432 96.9189 42.6034 97.0448 38.6605C97.0863 37.3815 97.0212 35.5173 95.9906 34.111C94.9834 32.7365 93.1462 32.098 91.623 32.5968C88.9743 33.4599 88.278 37.2829 91.1512 38.4364C91.9647 38.7622 92.8197 38.7221 93.499 38.3264C93.6677 38.2282 93.7245 38.011 93.6262 37.8422C93.528 37.6734 93.3122 37.6153 93.142 37.7149C92.6537 38.0006 92.0214 38.0234 91.4155 37.7792C89.1394 36.8669 89.8672 33.914 91.8416 33.2705C93.0881 32.8652 94.5877 33.3957 95.4192 34.5302C96.3198 35.7594 96.3738 37.4631 96.3364 38.6384C96.2147 42.4533 95.0609 46.1679 92.9981 49.3816C92.8449 49.6185 93.0191 49.9274 93.2956 49.9274Z" fill="#131928"/>
    <path d="M103.096 45.6115C103.208 45.451 103.168 45.2303 103.008 45.119C102.846 45.0076 102.624 45.0484 102.515 45.2089L99.2916 49.8608C99.1278 50.0963 99.2975 50.4169 99.5821 50.4169C99.9312 50.4169 99.7357 50.3582 103.096 45.6115Z" fill="#131928"/>
    <path d="M109.915 54.8245C109.567 55.1336 110.033 55.6672 110.385 55.3544C114.006 52.1417 112.044 48.3681 108.723 48.8494C106.32 49.1935 101.16 52.7412 98.5223 58.3178C98.4379 58.4949 98.514 58.7058 98.6897 58.7895C98.8748 58.8744 99.0815 58.7927 99.1614 58.6208C101.709 53.2383 106.703 49.8545 108.822 49.5508C111.529 49.161 112.935 52.1436 109.915 54.8245Z" fill="#131928"/>
    <path d="M25.7603 42.5169C30.6121 35.4916 38.5449 30.5043 46.9799 29.1761C47.4298 29.1049 47.3521 28.4141 46.8692 28.4761C38.2461 29.8347 30.1376 34.9327 25.1765 42.1143C24.9115 42.5002 25.4929 42.902 25.7603 42.5169Z" fill="#131928"/>
    <path d="M33.2948 25.1937C30.9581 26.4562 29.0129 28.4573 27.8176 30.8293C27.7305 31.0036 27.801 31.2167 27.9753 31.3045C28.1545 31.3941 28.3653 31.3185 28.4513 31.1475C29.5815 28.9042 31.4215 27.0116 33.6323 25.817C34.039 25.5972 33.7146 24.9738 33.2948 25.1937Z" fill="#131928"/>
    <path d="M132.797 43.086C132.608 43.1345 132.493 43.3268 132.541 43.5163L134.495 51.263C134.535 51.4235 134.679 51.5307 134.838 51.5307C135.068 51.5307 135.238 51.3142 135.181 51.0901L133.228 43.3434C133.179 43.1538 132.983 43.0411 132.797 43.086Z" fill="#131928"/>
    <path d="M143.551 50.0443L141.031 53.8703C140.875 54.1063 141.045 54.4195 141.327 54.4195C141.674 54.4195 141.502 54.3298 144.143 50.4345C144.251 50.2705 144.206 50.0513 144.042 49.9434C143.879 49.8361 143.659 49.8797 143.551 50.0443Z" fill="#131928"/>
    <path d="M149.762 64.6963L152.749 62.5499C152.908 62.4358 152.944 62.2144 152.83 62.0553C152.715 61.8955 152.493 61.8595 152.336 61.9744L149.349 64.1208C149.19 64.235 149.154 64.4563 149.268 64.6154C149.382 64.7736 149.604 64.8105 149.762 64.6963Z" fill="#131928"/>
    <path d="M61.8768 48.0366C61.3765 48.0351 61.402 48.726 61.8464 48.745C66.7383 48.9525 71.4213 51.4081 74.375 55.3136C74.6505 55.68 75.2238 55.2641 74.9395 54.8862C71.8599 50.8139 66.9776 48.2531 61.8768 48.0366Z" fill="#131928"/>
    <path d="M25.9871 86.1597C25.9483 85.6628 25.2468 85.7665 25.2815 86.2122C25.4918 89.0629 26.3288 91.8948 27.704 94.4016C27.7676 94.5192 27.8894 94.5856 28.0139 94.5856C28.2799 94.5856 28.4542 94.2993 28.3238 94.0613C26.9984 91.643 26.1905 88.9107 25.9871 86.1597Z" fill="#131928"/>
    <path d="M60.8117 105.564C60.0453 105.497 58.986 106.009 58.6424 105.472C57.9125 104.339 63.9772 99.3051 62.5659 94.0636C61.8839 91.5339 59.3134 89.5528 56.4538 89.3536C53.9027 89.173 51.2685 90.248 49.1684 92.2907C48.8339 92.617 49.3286 93.127 49.6637 92.7984C51.6172 90.8968 54.0756 89.9007 56.404 90.0605C58.9731 90.239 61.2765 92.0001 61.8825 94.2476C62.3833 96.1145 61.7538 98.0438 61.1368 99.3339C59.5634 102.624 57.2161 104.556 58.0447 105.854C58.7154 106.896 60.0889 106.201 60.7453 106.27C61.4287 106.333 61.9364 107.019 62.0872 107.662C62.2629 108.419 62.1038 109.259 61.9627 110C61.9204 110.218 62.0871 110.42 62.31 110.42C62.4774 110.42 62.6254 110.302 62.6572 110.132C62.8122 109.322 62.9865 108.405 62.7762 107.502C62.5756 106.639 61.8756 105.665 60.8117 105.564Z" fill="#131928"/>
    <path d="M51.8413 79.235C53.7007 79.0613 55.1658 77.7588 56.0664 76.6963C58.3325 74.0248 59.4019 70.3573 58.926 66.8848C58.859 66.4188 58.1606 66.5189 58.2232 66.9816C59.0478 72.9881 54.9923 78.2302 51.7749 78.5294C50.6039 78.6458 49.4427 78.2093 48.1807 77.9504C46.5039 77.6094 45.1633 77.8384 44.2973 78.6145C42.5481 80.1828 43.374 82.9538 43.001 84.7702C42.8391 85.5595 42.3189 86.5618 41.3906 86.7852C40.9454 86.8941 41.0872 87.5798 41.5566 87.4742C42.8073 87.1726 43.4907 85.906 43.6955 84.9127C44.0869 83.0013 43.301 80.4588 44.7704 79.1416C46.5509 77.5428 49.497 79.452 51.8413 79.235Z" fill="#131928"/>
    <path d="M104.178 79.0762H91.2868C91.0917 79.0762 90.9326 79.2346 90.9326 79.4303C90.9326 79.6261 91.0917 79.7845 91.2868 79.7845H104.178C104.647 79.7845 104.646 79.0762 104.178 79.0762Z" fill="#131928"/>
</svg>
