<svg width="186" height="208" viewBox="0 0 186 208" fill="none" xmlns="http://www.w3.org/2000/svg">
    <g clip-path="url(#clip0_617_4789)">
        <path d="M170.19 140.79C169.021 142.999 167.527 145.019 165.759 146.784L162.792 149.761L160.508 152.04L158.214 154.335L126.962 185.624L112.719 199.89C102.938 209.682 87.072 209.682 77.2908 199.89L42.0283 164.583L31.7919 154.335L29.5002 152.041L24.2519 146.781C14.4707 136.989 14.4707 121.113 24.2519 111.322L38.502 97.0632L74.3247 61.1934L77.2916 58.2232C79.6178 55.8943 82.3794 54.0469 85.4188 52.7866C88.4582 51.5262 91.7159 50.8774 95.0057 50.8774C98.2955 50.8774 101.553 51.5262 104.593 52.7866C107.632 54.0469 110.394 55.8943 112.72 58.2232L120.11 65.6219L165.759 111.322C173.726 119.3 175.206 131.318 170.19 140.79Z" fill="#F0F5FD"/>
        <path opacity="0.48" d="M170.191 140.791C169.022 143 167.528 145.02 165.759 146.784L162.792 149.762L160.508 152.041L158.215 154.336L126.962 185.625L112.719 199.891C102.938 209.683 87.0722 209.683 77.291 199.891C168.416 151.252 95.0007 50.8809 95.0007 50.8809C98.2918 50.8762 101.551 51.5228 104.592 52.7834C107.633 54.0441 110.394 55.894 112.719 58.2267L120.109 65.6254L165.757 111.325C173.726 119.301 175.206 131.319 170.191 140.791Z" fill="url(#paint0_linear_617_4789)"/>
        <path d="M61.057 47.8228H37.8175C24.7359 47.8228 13.5816 37.1119 13.6982 24.0158C13.8045 10.7449 24.8414 0.0898439 38.2529 0.626342C50.6425 1.12027 60.6597 11.4055 60.8576 23.8183C60.9552 28.997 59.3414 34.063 56.2669 38.2289L61.057 47.8228Z" fill="#FD9271"/>
        <path d="M61.057 47.8228H37.8175C24.7359 47.8228 13.5816 37.1119 13.6982 24.0158C13.8045 10.7449 24.8414 0.0898439 38.2529 0.626342C9.97471 28.3532 61.057 47.8228 61.057 47.8228Z" fill="url(#paint1_linear_617_4789)"/>
        <path d="M36.8882 34.5253C36.6328 34.8219 36.3169 35.0603 35.9617 35.2246C35.6066 35.3888 35.2204 35.475 34.8293 35.4775C34.4381 35.4799 34.0509 35.3985 33.6937 35.2387C33.3366 35.0789 33.0177 34.8444 32.7586 34.551L26.9253 27.9457C26.1356 27.0208 25.7453 25.8198 25.8402 24.6068C25.935 23.3938 26.5073 22.2682 27.4311 21.4776L34.8311 30.143L44.47 18.7592C45.256 17.8311 46.3779 17.2536 47.5892 17.1537C48.8004 17.0538 50.0017 17.4396 50.9287 18.2263L36.8882 34.5253Z" fill="white"/>
        <path opacity="0.77" d="M116.16 125.921C115.539 125.402 111.446 121.943 107.995 119.359C110.796 121.253 113.681 123.47 116.16 125.921Z" fill="url(#paint2_linear_617_4789)"/>
        <path opacity="0.77" d="M153.894 79.7158L147.707 86.1068C141.307 90.8091 136.721 93.1576 136.721 93.1576L112.715 97.0027C106.708 98.0228 102.305 99.8187 99.7468 101.088C91.522 99.4848 86.8125 99.1377 86.8125 99.1377C73.7668 97.8562 64.592 101.302 56.9112 101.701C48.6219 102.134 29.0303 86.1076 29.0303 86.1076L13.3477 110.938C25.5026 118.473 43.9124 125.918 49.671 132.643C55.4296 139.368 66.6337 148.422 66.6337 148.422C72.4736 152.666 96.1538 161.958 96.1538 161.958C103.916 164.919 107.598 162.356 107.598 162.356C110.077 160.835 106.558 159.982 106.558 159.982L91.5946 152.666C87.9936 150.583 91.1151 151.547 91.1151 151.547L104.717 158.512C111.996 162.116 116.718 157.951 116.718 157.951C119.916 156.271 115.597 154.501 115.597 154.501L101.438 146.696C92.6356 140.687 101.759 145.616 101.759 145.616C101.759 145.616 113.037 152.023 117.116 154.501C117.202 154.553 117.283 154.6 117.364 154.643C120.443 156.28 124.861 154.471 126.86 153.473C127.746 153.033 128.473 152.29 128.826 151.36C129.81 148.791 127.036 148.098 127.036 148.098C124.878 148.18 118.957 144.576 118.957 144.576L107.359 136.568C103.596 133.045 108.395 135.766 108.395 135.766L122.16 144.896C131.6 150.266 134.799 145.299 134.799 145.299C138.079 141.373 133.519 138.732 133.519 138.732L132.898 138.308C140.065 134.759 150.961 117.824 150.961 117.824L173.097 102.981L153.894 79.7158ZM107.997 120.645C106.426 119.586 104.884 118.63 103.452 117.782C104.214 117.941 105.999 119.145 107.997 120.645C110.797 122.539 113.683 124.755 116.162 127.207C115.541 126.688 111.448 123.229 107.997 120.645Z" fill="url(#paint3_linear_617_4789)"/>
        <path opacity="0.77" d="M116.16 125.921C115.539 125.402 111.446 121.943 107.995 119.359C110.796 121.253 113.681 123.47 116.16 125.921Z" fill="url(#paint4_linear_617_4789)"/>
        <path d="M103.435 119.406L66.0049 148.47L97.4604 164.858C97.4604 164.858 124.942 151.315 133.391 143.584L103.435 119.406Z" fill="#E8B2A7"/>
        <path d="M134.799 150.832C134.799 150.832 131.6 155.8 122.16 150.434L108.395 141.304C108.395 141.304 103.596 138.578 107.359 142.101L118.958 150.112C118.958 150.112 124.879 153.716 127.037 153.635C127.037 153.635 129.811 154.329 128.826 156.901C128.471 157.827 127.747 158.568 126.861 159.014C124.862 160.013 120.448 161.821 117.365 160.179C117.283 160.137 117.202 160.089 117.117 160.042C113.037 157.561 101.76 151.153 101.76 151.153C101.76 151.153 92.6363 146.228 101.439 152.233L115.597 160.043C115.597 160.043 119.918 161.804 116.719 163.492C116.719 163.492 111.996 167.659 104.718 164.054L91.1159 157.081C91.1159 157.081 87.995 156.121 91.5953 158.204L106.559 165.516C106.559 165.516 110.078 166.374 107.599 167.895C107.599 167.895 103.917 170.458 96.1545 167.492C96.1545 167.492 72.4751 158.204 66.6344 153.956L66.6256 153.948C66.2877 153.673 55.3438 144.801 49.671 138.178C44.6016 132.251 29.715 125.775 17.9369 119.165C16.3402 118.269 14.7985 117.373 13.3477 116.473L29.0303 91.6426C29.0303 91.6426 48.6219 107.664 56.9112 107.236C64.592 106.833 73.7668 103.391 86.8125 104.673C86.8125 104.673 94.0439 105.204 106.225 107.999C118.581 110.827 86.3162 113.185 95.7564 119.276C95.7564 119.276 108.156 124.801 116.239 132.811L126.96 139.776L133.519 144.264C133.519 144.264 138.079 146.91 134.799 150.832Z" fill="#FCD9D2"/>
        <path d="M70.7412 133.723C70.7412 133.723 73.4933 137.137 77.9037 135.535C77.9037 135.535 84.4482 133.324 89.1422 127.542C89.1422 127.542 94.9023 124.856 104.503 123.895L103.01 121.546L87.6225 124.216L70.7412 133.723Z" fill="url(#paint5_linear_617_4789)"/>
        <path d="M70.6862 130.039C70.6862 130.039 75.5929 125.604 78.1529 121.546C78.1529 121.546 78.793 118.769 82.633 117.273L97.1405 108.09C97.1405 108.09 102.688 104.245 112.715 102.536L136.717 98.6913C136.717 98.6913 141.305 96.3428 147.706 91.6456L153.893 85.2554L173.094 108.521L150.956 123.361C150.956 123.361 140.06 140.293 132.894 143.842C132.894 143.842 118.877 135.226 116.233 132.812C116.233 132.812 105.612 123.761 103.441 123.321C103.441 123.321 93.991 124.001 88.9509 126.164C88.9509 126.164 80.2269 135.779 73.4295 134.814C73.4325 134.814 67.9393 133.593 70.6862 130.039ZM80.7973 165.589C80.7973 165.589 80.6939 161.818 84.6688 162.347L93.3195 167.009C93.3195 167.009 81.5084 168.589 80.7973 165.589Z" fill="#E8B2A7"/>
        <path opacity="0.43" d="M80.7979 160.188C80.7979 160.188 91.3436 165.039 93.573 166.826L94.0444 167.425C94.0444 167.425 82.1446 160.849 81.0104 160.838L80.7979 160.188Z" fill="#E8B2A7"/>
        <path d="M74.4461 162.661C74.4461 162.661 70.3077 156.874 72.8062 155.377C72.8062 155.377 78.0845 152.378 80.2971 159.019C80.2971 159.019 83.2926 164.733 78.8697 165.161C78.8697 165.161 75.9879 165.277 74.4461 162.661ZM56.9717 152.378C56.9717 152.378 56.3303 148.722 59.3258 148.55C59.3258 148.55 64.0345 150.593 64.0345 154.02C64.0345 154.02 65.7595 158.02 60.4745 156.516C60.4716 156.519 57.6829 155.091 56.9717 152.378Z" fill="#E8B2A7"/>
        <path d="M64.9421 157.487C64.3615 156.116 65.0594 152.511 67.0989 151.878C67.0989 151.878 71.8268 151.221 72.0057 154.698C72.0057 154.698 70.8928 156.94 73.1933 161.222C73.5261 161.84 69.2213 164.699 66.1554 159.93C66.1532 159.931 65.2112 158.124 64.9421 157.487Z" fill="#E8B2A7"/>
        <path d="M104.403 123.736C104.403 123.736 118.586 123.471 125.841 119.412C125.841 119.412 118.673 125.115 106 124.965L104.403 123.736ZM119.884 135.505L122.957 130.909C122.957 130.909 119.573 134.292 119.371 135.155C119.337 135.307 119.884 135.505 119.884 135.505Z" fill="#D39184"/>
        <path d="M159.046 74.6747L149.298 82.7651C148.288 83.6035 148.148 85.103 148.985 86.1144L171.605 113.43C172.443 114.441 173.941 114.581 174.951 113.743L184.699 105.652C185.709 104.814 185.849 103.314 185.012 102.303L162.391 74.9877C161.554 73.9764 160.056 73.8362 159.046 74.6747Z" fill="url(#paint6_linear_617_4789)"/>
        <path d="M176.09 107.941C177.626 107.926 178.858 106.667 178.843 105.129C178.828 103.591 177.57 102.357 176.034 102.372C174.498 102.388 173.265 103.647 173.281 105.184C173.296 106.722 174.553 107.956 176.09 107.941Z" fill="white"/>
        <path d="M1.13134 115.975L11.6461 123.037C12.7358 123.769 14.2118 123.478 14.943 122.388L34.6901 92.9236C35.4212 91.8327 35.1306 90.355 34.0409 89.6231L23.5262 82.5603C22.4365 81.8283 20.9604 82.1193 20.2293 83.2102L0.482139 112.674C-0.248992 113.765 0.0416624 115.243 1.13134 115.975Z" fill="url(#paint7_linear_617_4789)"/>
        <path d="M9.93707 117.372C11.4668 117.232 12.5934 115.877 12.4534 114.345C12.3133 112.814 10.9597 111.686 9.43 111.826C7.90026 111.966 6.77367 113.322 6.91369 114.853C7.05372 116.384 8.40733 117.512 9.93707 117.372Z" fill="white"/>
        <path d="M66.6262 153.949C66.2882 153.675 55.3444 144.802 49.6716 138.18C44.6021 132.252 29.7156 125.777 17.9375 119.166L18.2967 117.387C18.2967 117.387 51.5975 134.661 58.735 130.284C58.7321 130.284 56.7571 143.31 66.6262 153.949Z" fill="url(#paint8_linear_617_4789)"/>
    </g>
    <defs>
        <linearGradient id="paint0_linear_617_4789" x1="125.194" y1="69.1505" x2="125.194" y2="292.329" gradientUnits="userSpaceOnUse">
            <stop stop-color="#D6E6FD"/>
            <stop offset="1" stop-color="#D2E3FD"/>
        </linearGradient>
        <linearGradient id="paint1_linear_617_4789" x1="37.2024" y1="36.4624" x2="18.9533" y2="-46.5829" gradientUnits="userSpaceOnUse">
            <stop stop-color="#FD9271"/>
            <stop offset="1" stop-color="#FED4C4"/>
        </linearGradient>
        <linearGradient id="paint2_linear_617_4789" x1="107.995" y1="122.64" x2="116.16" y2="122.64" gradientUnits="userSpaceOnUse">
            <stop stop-color="#D6E6FD"/>
            <stop offset="1" stop-color="#D2E3FD"/>
        </linearGradient>
        <linearGradient id="paint3_linear_617_4789" x1="13.3484" y1="121.552" x2="173.097" y2="121.552" gradientUnits="userSpaceOnUse">
            <stop stop-color="#D6E6FD"/>
            <stop offset="1" stop-color="#D2E3FD"/>
        </linearGradient>
        <linearGradient id="paint4_linear_617_4789" x1="107.995" y1="122.64" x2="116.16" y2="122.64" gradientUnits="userSpaceOnUse">
            <stop stop-color="#D6E6FD"/>
            <stop offset="1" stop-color="#D2E3FD"/>
        </linearGradient>
        <linearGradient id="paint5_linear_617_4789" x1="114.557" y1="115.241" x2="50.2332" y2="145.829" gradientUnits="userSpaceOnUse">
            <stop stop-color="#FD9271"/>
            <stop offset="1" stop-color="#FED4C4" stop-opacity="0"/>
        </linearGradient>
        <linearGradient id="paint6_linear_617_4789" x1="135.192" y1="57.0866" x2="202.231" y2="135.166" gradientUnits="userSpaceOnUse">
            <stop stop-color="#5C75C9"/>
            <stop offset="1" stop-color="#D2E3FD"/>
        </linearGradient>
        <linearGradient id="paint7_linear_617_4789" x1="30.6721" y1="81.7637" x2="-28.27" y2="166.136" gradientUnits="userSpaceOnUse">
            <stop stop-color="#5C75C9"/>
            <stop offset="1" stop-color="#2E419B"/>
        </linearGradient>
        <linearGradient id="paint8_linear_617_4789" x1="101.183" y1="185.845" x2="11.1758" y2="98.5064" gradientUnits="userSpaceOnUse">
            <stop stop-color="#FD9271"/>
            <stop offset="1" stop-color="#FED4C4" stop-opacity="0"/>
        </linearGradient>
        <clipPath id="clip0_617_4789">
            <rect width="185.477" height="206.627" fill="white" transform="translate(0.0820312 0.606934)"/>
        </clipPath>
    </defs>
</svg>
