<svg width="100" height="101" viewBox="0 0 100 101" fill="none" xmlns="http://www.w3.org/2000/svg">
    <path d="M51.6758 6.22949C29.8985 6.22949 12.2417 24.1121 12.2417 46.1681C12.2417 52.7017 13.7939 58.8683 16.5386 64.3153C18.3978 67.9984 18.3307 72.3588 16.468 76.0383L13.1907 82.5189C12.277 84.3252 13.9703 86.3502 15.9106 85.7645L27.1574 82.3743C30.1314 81.4782 33.324 81.6687 36.1745 82.9035C40.9336 84.9637 46.1724 86.1067 51.6723 86.1067C73.4496 86.1067 91.1065 68.2241 91.1065 46.1681C91.1065 24.1121 73.4532 6.22949 51.6758 6.22949Z" fill="url(#paint0_linear_971_8134)"/>
    <path d="M51.6763 60.0398C53.0627 60.0398 54.1987 58.9356 54.2375 57.5491L55.1794 23.0222C55.2323 21.0502 53.6483 19.4238 51.6798 19.4238C49.7077 19.4238 48.1237 21.0502 48.1802 23.0222L49.1221 57.5491C49.1609 58.9356 50.2969 60.0398 51.6833 60.0398H51.6763Z" fill="url(#paint1_linear_971_8134)"/>
    <path d="M51.6761 70.1783C53.8719 70.1783 55.6519 68.3982 55.6519 66.2024C55.6519 64.0066 53.8719 62.2266 51.6761 62.2266C49.4802 62.2266 47.7002 64.0066 47.7002 66.2024C47.7002 68.3982 49.4802 70.1783 51.6761 70.1783Z" fill="url(#paint2_linear_971_8134)"/>
    <defs>
        <linearGradient id="paint0_linear_971_8134" x1="12.2417" y1="46.1681" x2="91.11" y2="46.1681" gradientUnits="userSpaceOnUse">
            <stop stop-color="#FF6565"/>
            <stop offset="0.38" stop-color="#FF6767"/>
            <stop offset="0.59" stop-color="#FF6F6F"/>
            <stop offset="0.76" stop-color="#FF7D7D"/>
            <stop offset="0.89" stop-color="#FF8D8D"/>
        </linearGradient>
        <linearGradient id="paint1_linear_971_8134" x1="51.7186" y1="17.54" x2="51.4046" y2="55.9687" gradientUnits="userSpaceOnUse">
            <stop stop-color="white"/>
            <stop offset="0.02" stop-color="#FEFCFC"/>
            <stop offset="0.21" stop-color="#FDE6E7"/>
            <stop offset="0.43" stop-color="#FCD6D8"/>
            <stop offset="0.67" stop-color="#FCCCCF"/>
            <stop offset="1" stop-color="#FCCACD"/>
        </linearGradient>
        <linearGradient id="paint2_linear_971_8134" x1="51.7113" y1="61.8561" x2="51.6478" y2="69.381" gradientUnits="userSpaceOnUse">
            <stop stop-color="white"/>
            <stop offset="0.02" stop-color="#FEFCFC"/>
            <stop offset="0.21" stop-color="#FDE6E7"/>
            <stop offset="0.43" stop-color="#FCD6D8"/>
            <stop offset="0.67" stop-color="#FCCCCF"/>
            <stop offset="1" stop-color="#FCCACD"/>
        </linearGradient>
    </defs>
</svg>
