<svg width="364" height="263" viewBox="0 0 364 263" fill="none" xmlns="http://www.w3.org/2000/svg">
    <g clip-path="url(#clip0_617_4747)">
        <path opacity="0.34" d="M179.056 57.8597C174.846 67.4509 139.303 69.46 129.574 51.8305C125.985 45.3273 125.46 35.3373 130.38 30.3711C138.742 21.9302 161.364 29.4899 172.707 43.0993C175.71 46.7047 181.11 53.182 179.056 57.8597Z" fill="url(#paint0_linear_617_4747)"/>
        <path opacity="0.34" d="M66.3242 233.321C72.6492 210.03 84.8253 179.117 109.394 171.403C130.62 164.738 131.131 181.192 156.985 185.025C225.181 195.136 257.13 99.4453 294.407 114.437C318.141 123.982 332.549 155.612 322.909 191.075C317.406 211.316 306.605 225.395 299.528 233.179L66.3242 233.321Z" fill="url(#paint1_linear_617_4747)"/>
        <path d="M58.0831 234.035H280.291M292.395 233.75H316.537M39.9277 233.75H49.3451" stroke="#5C75C9" stroke-width="5.34574" stroke-miterlimit="10" stroke-linecap="round"/>
        <path d="M117.788 108.598H92.1902C77.7835 108.598 65.4986 96.7399 65.624 82.242C65.7411 67.5501 77.9006 55.7514 92.6667 56.3478C106.314 56.8942 117.344 68.2811 117.562 82.0231C117.669 87.7565 115.892 93.3651 112.506 97.9773L117.788 108.598Z" fill="#FD9271"/>
        <path d="M117.788 108.598H92.1902C77.7835 108.598 65.4986 96.7399 65.624 82.242C65.7411 67.5501 77.9006 55.7514 92.6667 56.3478C61.5287 87.044 117.788 108.598 117.788 108.598Z" fill="url(#paint2_linear_617_4747)"/>
        <g opacity="0.98">
            <path d="M93.0883 94.6895V97.667C93.0883 97.7492 93.0559 97.828 92.9981 97.8861C92.9404 97.9442 92.8621 97.9768 92.7804 97.9768H90.5581C90.4765 97.9768 90.3982 97.9442 90.3404 97.8861C90.2827 97.828 90.2503 97.7492 90.2503 97.667V94.6877C90.2494 94.6113 90.2208 94.538 90.1698 94.4814C90.1189 94.4249 90.0491 94.389 89.9737 94.3806C85.9796 93.8563 83.501 91.7828 82.5381 88.1603C82.5279 88.1204 82.5256 88.0788 82.5315 88.0379C82.5373 87.9971 82.5511 87.9578 82.5721 87.9224C82.5931 87.8869 82.6209 87.856 82.6538 87.8314C82.6867 87.8069 82.7242 87.7891 82.7639 87.7791L87.0482 86.7365C87.1261 86.7193 87.2077 86.7326 87.2762 86.7738C87.3447 86.815 87.395 86.8809 87.4169 86.9582C88.0313 88.9877 89.5298 90.0025 91.9122 90.0025C93.1184 90.0025 94.0202 89.7573 94.6174 89.2669C95.2147 88.7766 95.5134 88.186 95.5134 87.4953C95.5134 86.7915 95.2473 86.2449 94.7151 85.8553C94.183 85.4657 93.1424 85.1086 91.5932 84.784C88.2338 84.0475 86.0668 83.0534 85.0922 81.8018C84.1177 80.5502 83.6301 79.088 83.6295 77.4153C83.6295 75.4532 84.2439 73.7771 85.4729 72.3869C86.646 71.0605 88.1478 70.2526 89.9784 69.9632C90.0517 69.9526 90.1187 69.9158 90.1675 69.8597C90.2162 69.8035 90.2433 69.7316 90.2438 69.6571V67.2556C90.2438 67.1735 90.2763 67.0946 90.334 67.0365C90.3917 66.9784 90.47 66.9458 90.5517 66.9458H92.774C92.8556 66.9458 92.9339 66.9784 92.9917 67.0365C93.0494 67.0946 93.0818 67.1735 93.0818 67.2556V69.6098C93.0825 69.6863 93.111 69.7599 93.162 69.8166C93.2129 69.8734 93.2828 69.9094 93.3583 69.9177C96.7466 70.3339 99.0083 72.0787 100.143 75.1521C100.171 75.2297 100.168 75.3153 100.133 75.3902C100.098 75.4651 100.036 75.5232 99.9589 75.5518L96.0738 76.9283C95.9957 76.9548 95.9103 76.9493 95.8362 76.913C95.7621 76.8768 95.705 76.8126 95.6774 76.7345C95.0377 75.0475 93.7894 74.2041 91.9324 74.2041C89.8512 74.2041 88.8105 74.9205 88.8105 76.3533C88.8045 76.624 88.8533 76.8931 88.9539 77.1443C89.0545 77.3954 89.2049 77.6234 89.3958 77.8142C89.786 78.2099 90.6669 78.5525 92.0384 78.8419C94.3323 79.3329 96.0145 79.8298 97.0849 80.3325C98.1554 80.8353 99.0541 81.6469 99.781 82.7674C100.507 83.8829 100.887 85.1906 100.872 86.5241C100.872 88.4368 100.227 90.1639 98.9367 91.7055C97.6905 93.1896 95.8323 94.0823 93.362 94.3834C93.2871 94.392 93.218 94.4279 93.1675 94.4843C93.1171 94.5407 93.0889 94.6137 93.0883 94.6895Z" fill="white"/>
        </g>
        <path d="M280.646 76.8696C279.562 78.0464 278.259 78.997 276.811 79.6671C275.363 80.3371 273.798 80.7135 272.205 80.7748C270.612 80.8361 269.023 80.5811 267.528 80.0242C266.033 79.4674 264.662 78.6197 263.493 77.5296C264.576 76.3528 265.879 75.4022 267.327 74.7322C268.775 74.0621 270.34 73.6857 271.933 73.6244C273.526 73.5631 275.115 73.8182 276.61 74.375C278.105 74.9318 279.476 75.7795 280.646 76.8696Z" fill="url(#paint3_linear_617_4747)"/>
        <path d="M261.845 97.277C259.485 95.0747 258.09 92.0189 257.968 88.7818C257.846 85.5447 259.007 82.3915 261.195 80.0158C263.556 82.218 264.951 85.2738 265.073 88.5109C265.195 91.748 264.034 94.9013 261.845 97.277Z" fill="#FD9271"/>
        <path d="M261.427 75.5983C260.258 74.5078 259.314 73.1963 258.649 71.7387C257.984 70.2811 257.61 68.706 257.55 67.1031C257.49 65.5003 257.744 63.9011 258.297 62.397C258.851 60.893 259.694 59.5134 260.777 58.337C263.138 60.5393 264.533 63.5951 264.655 66.8322C264.777 70.0693 263.616 73.2225 261.427 75.5983Z" fill="#5C75C9"/>
        <path d="M259.132 78.0884C256.943 80.4641 253.907 81.8677 250.69 81.9903C247.473 82.113 244.34 80.9447 241.979 78.7424C244.168 76.3667 247.204 74.9632 250.421 74.8405C253.638 74.7178 256.771 75.8861 259.132 78.0884Z" fill="url(#paint4_linear_617_4747)"/>
        <path d="M137.113 145.608C137.116 145.608 137.118 145.609 137.119 145.61C137.121 145.612 137.122 145.614 137.122 145.616V198.506C137.122 201.86 135.962 205.11 133.842 207.698C131.722 210.287 128.773 212.052 125.501 212.692C124.596 212.878 123.676 212.971 122.753 212.97C118.941 212.97 115.285 211.446 112.589 208.734C109.894 206.021 108.379 202.342 108.379 198.506V160.072C108.38 158.173 108.008 156.292 107.286 154.536C106.564 152.781 105.505 151.187 104.17 149.843C102.835 148.5 101.25 147.435 99.5061 146.708C97.762 145.981 95.8926 145.607 94.0049 145.608H137.113Z" fill="url(#paint5_linear_617_4747)"/>
        <path d="M108.378 160.072V180.898H79.6309V160.072C79.6309 156.236 81.1452 152.557 83.8408 149.844C86.5363 147.132 90.1923 145.608 94.0044 145.608C97.8165 145.608 101.472 147.132 104.168 149.844C106.864 152.557 108.378 156.236 108.378 160.072Z" fill="url(#paint6_linear_617_4747)"/>
        <path d="M245.311 118.455V235.748H184.044C180.251 235.748 176.613 234.232 173.931 231.533C171.249 228.834 169.742 225.173 169.742 221.356V120.056C169.516 111.186 162.302 104.062 153.438 104.062H231.014C234.807 104.064 238.443 105.581 241.124 108.28C243.805 110.978 245.311 114.638 245.311 118.455Z" fill="url(#paint7_linear_617_4747)"/>
        <path d="M169.753 212.97V213.021H122.757C123.678 213.02 124.598 212.927 125.501 212.743C128.773 212.104 131.722 210.339 133.842 207.752C135.963 205.164 137.123 201.915 137.124 198.561V120.48C137.124 111.413 144.428 104.062 153.433 104.062C162.005 104.062 169.04 110.728 169.692 119.194C169.698 119.577 169.753 212.196 169.753 212.97Z" fill="#5C75C9"/>
        <path d="M276.312 211.202V220.57C276.312 224.596 274.722 228.457 271.893 231.304C269.064 234.151 265.227 235.751 261.227 235.751H184.43C186.489 235.543 189.696 234.702 192.239 232.726L192.249 232.716C193.889 231.411 195.214 229.748 196.124 227.854C197.034 225.959 197.505 223.881 197.503 221.777V211.203L276.312 211.202Z" fill="url(#paint8_linear_617_4747)"/>
        <path d="M183.372 130.466H235.105V136.459H183.372V130.466ZM183.372 157.262H235.105V163.255H183.372V157.262ZM183.372 184.914H235.105V190.907H183.372V184.914Z" fill="#A1BFF1"/>
        <path d="M223.285 141.941L288.403 141.301L288.773 179.413L223.655 180.054L223.285 141.941Z" fill="url(#paint9_linear_617_4747)"/>
        <path d="M284.525 170.913L284.323 149.904C283.699 149.91 283.079 149.793 282.499 149.558C281.919 149.323 281.392 148.975 280.945 148.535C280.499 148.094 280.144 147.57 279.899 146.991C279.654 146.413 279.525 145.791 279.519 145.163L232.234 145.626C232.24 146.255 232.123 146.879 231.89 147.462C231.656 148.046 231.311 148.577 230.873 149.026C230.436 149.475 229.915 149.832 229.34 150.079C228.765 150.325 228.147 150.455 227.522 150.461L227.726 171.47C228.988 171.457 230.203 171.95 231.104 172.839C232.005 173.728 232.518 174.941 232.53 176.21L279.815 175.747C279.803 174.477 280.293 173.255 281.176 172.348C282.059 171.442 283.264 170.926 284.525 170.913Z" fill="#FED4C4"/>
        <path d="M237.749 165.155C240.107 165.132 241.999 163.19 241.976 160.818C241.953 158.446 240.023 156.541 237.666 156.564C235.308 156.588 233.416 158.53 233.439 160.902C233.462 163.274 235.392 165.178 237.749 165.155Z" fill="url(#paint10_linear_617_4747)"/>
        <path d="M274.393 164.792C276.75 164.769 278.642 162.827 278.619 160.455C278.596 158.083 276.667 156.178 274.309 156.202C271.952 156.225 270.06 158.167 270.083 160.539C270.106 162.911 272.035 164.816 274.393 164.792Z" fill="url(#paint11_linear_617_4747)"/>
        <path d="M263.615 160.598C263.665 166.572 260.307 171.451 256.113 171.504C251.919 171.558 248.477 166.751 248.426 160.777C248.376 154.802 251.734 149.924 255.928 149.871C260.122 149.817 263.564 154.623 263.615 160.598Z" fill="url(#paint12_linear_617_4747)"/>
        <path d="M197.331 71.752L198.138 73.2361C199.133 75.0669 200.629 76.5721 202.448 77.5734L203.923 78.386L202.448 79.1985C200.629 80.1998 199.133 81.7051 198.138 83.5358L197.331 85.02L196.523 83.5358C195.528 81.7051 194.032 80.1998 192.213 79.1985L190.738 78.386L192.213 77.5734C194.032 76.5721 195.528 75.0669 196.523 73.2361L197.331 71.752ZM296.491 201.559L297.078 202.639C297.801 203.971 298.889 205.065 300.212 205.793L301.285 206.384L300.212 206.975C298.889 207.702 297.801 208.797 297.078 210.128L296.491 211.208L295.904 210.128C295.18 208.797 294.093 207.702 292.77 206.975L291.697 206.384L292.77 205.793C294.093 205.065 295.18 203.971 295.904 202.639L296.491 201.559ZM94.0043 212.97L94.8523 214.531C95.8966 216.452 97.4666 218.032 99.3761 219.083L100.926 219.936L99.3761 220.79C97.4666 221.841 95.8966 223.421 94.8523 225.342L94.0043 226.903L93.1563 225.342C92.1119 223.421 90.5419 221.841 88.6324 220.79L87.082 219.936L88.6324 219.083C90.5424 218.031 92.1125 216.45 93.1563 214.527L94.0043 212.97Z" fill="#5C74C6"/>
    </g>
    <defs>
        <linearGradient id="paint0_linear_617_4747" x1="160.041" y1="80.6401" x2="146.483" y2="19.2066" gradientUnits="userSpaceOnUse">
            <stop stop-color="#D6E6FD"/>
            <stop offset="1" stop-color="#D2E3FD"/>
        </linearGradient>
        <linearGradient id="paint1_linear_617_4747" x1="65.0439" y1="227.975" x2="317.971" y2="167.381" gradientUnits="userSpaceOnUse">
            <stop stop-color="#D6E6FD"/>
            <stop offset="1" stop-color="#D2E3FD"/>
        </linearGradient>
        <linearGradient id="paint2_linear_617_4747" x1="91.5155" y1="96.0211" x2="71.2164" y2="4.12812" gradientUnits="userSpaceOnUse">
            <stop stop-color="#FD9271"/>
            <stop offset="1" stop-color="#FED4C4"/>
        </linearGradient>
        <linearGradient id="paint3_linear_617_4747" x1="276.191" y1="72.7206" x2="267.884" y2="81.6259" gradientUnits="userSpaceOnUse">
            <stop stop-color="#373282"/>
            <stop offset="0.44" stop-color="#323A8F"/>
            <stop offset="1" stop-color="#2E419B"/>
        </linearGradient>
        <linearGradient id="paint4_linear_617_4747" x1="254.681" y1="73.9366" x2="246.374" y2="82.8419" gradientUnits="userSpaceOnUse">
            <stop stop-color="#373282"/>
            <stop offset="0.44" stop-color="#323A8F"/>
            <stop offset="1" stop-color="#2E419B"/>
        </linearGradient>
        <linearGradient id="paint5_linear_617_4747" x1="264.145" y1="377.156" x2="231.357" y2="228.592" gradientUnits="userSpaceOnUse">
            <stop stop-color="#D6E6FD"/>
            <stop offset="1" stop-color="#D2E3FD"/>
        </linearGradient>
        <linearGradient id="paint6_linear_617_4747" x1="94.0044" y1="210.089" x2="94.0044" y2="78.1965" gradientUnits="userSpaceOnUse">
            <stop stop-color="#5C75C9"/>
            <stop offset="1" stop-color="#2E419B"/>
        </linearGradient>
        <linearGradient id="paint7_linear_617_4747" x1="362.685" y1="435.603" x2="317.722" y2="231.879" gradientUnits="userSpaceOnUse">
            <stop stop-color="#D6E6FD"/>
            <stop offset="1" stop-color="#D2E3FD"/>
        </linearGradient>
        <linearGradient id="paint8_linear_617_4747" x1="202.082" y1="223.475" x2="350.31" y2="223.475" gradientUnits="userSpaceOnUse">
            <stop stop-color="#5C75C9"/>
            <stop offset="1" stop-color="#2E419B"/>
        </linearGradient>
        <linearGradient id="paint9_linear_617_4747" x1="197.26" y1="171.221" x2="438.545" y2="128.511" gradientUnits="userSpaceOnUse">
            <stop stop-color="#FD9271"/>
            <stop offset="1" stop-color="#FED4C4"/>
        </linearGradient>
        <linearGradient id="paint10_linear_617_4747" x1="196.73" y1="168.211" x2="438.014" y2="125.502" gradientUnits="userSpaceOnUse">
            <stop stop-color="#FD9271"/>
            <stop offset="1" stop-color="#FED4C4"/>
        </linearGradient>
        <linearGradient id="paint11_linear_617_4747" x1="197.792" y1="174.23" x2="439.078" y2="131.52" gradientUnits="userSpaceOnUse">
            <stop stop-color="#FD9271"/>
            <stop offset="1" stop-color="#FED4C4"/>
        </linearGradient>
        <linearGradient id="paint12_linear_617_4747" x1="197.258" y1="171.221" x2="438.543" y2="128.512" gradientUnits="userSpaceOnUse">
            <stop stop-color="#FD9271"/>
            <stop offset="1" stop-color="#FED4C4"/>
        </linearGradient>
        <clipPath id="clip0_617_4747">
            <rect width="287.879" height="209.091" fill="white" transform="translate(38.0605 26.8242)"/>
        </clipPath>
    </defs>
</svg>
