<svg width="46" height="40" viewBox="0 0 46 40" fill="none" xmlns="http://www.w3.org/2000/svg">
    <path d="M45.6267 40H25.8057L20.1639 32.2366H29.4902L22.972 23.1988L10.8522 39.9963H0.317261L22.1431 10.2319C22.2963 10.0228 22.3886 9.77541 22.4097 9.51708C22.4308 9.25876 22.3798 8.99964 22.2626 8.7685C22.1453 8.53736 21.9663 8.34326 21.7454 8.20773C21.5244 8.0722 21.2702 8.00054 21.0111 8.00073H14.8325V6.84622e-08H20.8431C22.6712 -0.000219842 24.4601 0.529352 25.9935 1.52464C27.5269 2.51993 28.7389 3.93828 29.483 5.60806C30.2271 7.27783 30.4714 9.12746 30.1862 10.9331C29.901 12.7388 29.0986 14.4232 27.8762 15.7824L45.6267 40ZM2.62144 38.8351H10.257L22.972 21.2014L31.7688 33.4015H22.4535L26.3972 38.8315H43.3225L26.3498 15.6728L26.7149 15.3077C27.8742 14.1497 28.6642 12.6741 28.9853 11.0674C29.3063 9.46063 29.144 7.79478 28.5188 6.28024C27.8936 4.76569 26.8336 3.47041 25.4726 2.558C24.1117 1.6456 22.5108 1.15699 20.8723 1.15392H15.9974V6.8249H21.022C21.4986 6.81995 21.9671 6.94833 22.3745 7.19554C22.782 7.44275 23.1122 7.79897 23.3279 8.22394C23.5436 8.64892 23.6362 9.12574 23.5953 9.60057C23.5543 10.0754 23.3815 10.5293 23.0962 10.9111L2.62144 38.8351Z" fill="#006349"/>
</svg>
