<svg width="44" height="44" viewBox="0 0 44 44" fill="none" xmlns="http://www.w3.org/2000/svg">
    <path d="M22 0.74707C21.6022 0.74707 21.2206 0.905105 20.9393 1.18641C20.658 1.46771 20.5 1.84925 20.5 2.24707V9.83707C20.5 10.2349 20.658 10.6164 20.9393 10.8977C21.2206 11.179 21.6022 11.3371 22 11.3371C22.3978 11.3371 22.7794 11.179 23.0607 10.8977C23.342 10.6164 23.5 10.2349 23.5 9.83707V2.24707C23.5 1.84925 23.342 1.46771 23.0607 1.18641C22.7794 0.905105 22.3978 0.74707 22 0.74707ZM30.77 14.9771C30.967 14.9774 31.1621 14.9387 31.3441 14.8632C31.526 14.7877 31.6912 14.6768 31.83 14.5371L37.2 9.16707C37.3474 9.02975 37.4656 8.86415 37.5476 8.68015C37.6295 8.49615 37.6736 8.29752 37.6772 8.09612C37.6807 7.89471 37.6437 7.69465 37.5682 7.50788C37.4928 7.3211 37.3805 7.15143 37.2381 7.00899C37.0956 6.86656 36.926 6.75427 36.7392 6.67883C36.5524 6.60338 36.3524 6.56633 36.151 6.56989C35.9496 6.57344 35.7509 6.61752 35.5669 6.69951C35.3829 6.78149 35.2173 6.8997 35.08 7.04707L29.71 12.4171C29.5052 12.6286 29.3668 12.8954 29.3117 13.1847C29.2565 13.4739 29.2872 13.7729 29.3998 14.0449C29.5125 14.317 29.7022 14.5501 29.9456 14.7158C30.1891 14.8814 30.4756 14.9722 30.77 14.9771ZM42 20.7471H34.41C34.0122 20.7471 33.6306 20.9051 33.3493 21.1864C33.068 21.4677 32.91 21.8492 32.91 22.2471C32.91 22.6449 33.068 23.0264 33.3493 23.3077C33.6306 23.589 34.0122 23.7471 34.41 23.7471H42C42.3978 23.7471 42.7794 23.589 43.0607 23.3077C43.342 23.0264 43.5 22.6449 43.5 22.2471C43.5 21.8492 43.342 21.4677 43.0607 21.1864C42.7794 20.9051 42.3978 20.7471 42 20.7471ZM31.83 29.9571C31.5457 29.6921 31.1696 29.5479 30.781 29.5547C30.3924 29.5616 30.0216 29.719 29.7468 29.9938C29.4719 30.2687 29.3145 30.6394 29.3077 31.028C29.3008 31.4166 29.445 31.7927 29.71 32.0771L35.08 37.4471C35.3644 37.712 35.7404 37.8563 36.129 37.8494C36.5176 37.8426 36.8884 37.6851 37.1632 37.4103C37.4381 37.1355 37.5955 36.7647 37.6023 36.3761C37.6092 35.9875 37.465 35.6114 37.2 35.3271L31.83 29.9571ZM22 33.1571C21.6022 33.1571 21.2206 33.3151 20.9393 33.5964C20.658 33.8777 20.5 34.2592 20.5 34.6571V42.2471C20.5 42.6449 20.658 43.0264 20.9393 43.3077C21.2206 43.589 21.6022 43.7471 22 43.7471C22.3978 43.7471 22.7794 43.589 23.0607 43.3077C23.342 43.0264 23.5 42.6449 23.5 42.2471V34.6571C23.5 34.2592 23.342 33.8777 23.0607 33.5964C22.7794 33.3151 22.3978 33.1571 22 33.1571ZM12.17 29.9571L6.8 35.3271C6.59522 35.5386 6.45676 35.8054 6.40166 36.0947C6.34655 36.3839 6.3772 36.6829 6.48984 36.9549C6.60248 37.227 6.79219 37.4601 7.03563 37.6258C7.27907 37.7914 7.56561 37.8822 7.86 37.8871C8.05716 37.8886 8.25261 37.8504 8.43472 37.7748C8.61682 37.6992 8.78185 37.5878 8.92 37.4471L14.29 32.0771C14.555 31.7927 14.6992 31.4166 14.6924 31.028C14.6855 30.6394 14.5281 30.2687 14.2532 29.9938C13.9784 29.719 13.6076 29.5616 13.219 29.5547C12.8304 29.5479 12.4543 29.6921 12.17 29.9571ZM11.09 22.2471C11.09 21.8492 10.932 21.4677 10.6507 21.1864C10.3694 20.9051 9.98782 20.7471 9.59 20.7471H2C1.60218 20.7471 1.22064 20.9051 0.93934 21.1864C0.658035 21.4677 0.5 21.8492 0.5 22.2471C0.5 22.6449 0.658035 23.0264 0.93934 23.3077C1.22064 23.589 1.60218 23.7471 2 23.7471H9.59C9.98782 23.7471 10.3694 23.589 10.6507 23.3077C10.932 23.0264 11.09 22.6449 11.09 22.2471ZM8.92 7.04707C8.63565 6.78211 8.25956 6.63786 7.87095 6.64472C7.48235 6.65158 7.11158 6.809 6.83676 7.08383C6.56193 7.35865 6.40451 7.72942 6.39765 8.11802C6.39079 8.50663 6.53504 8.88272 6.8 9.16707L12.17 14.5371C12.4543 14.802 12.8304 14.9463 13.219 14.9394C13.6076 14.9326 13.9784 14.7751 14.2532 14.5003C14.5281 14.2255 14.6855 13.8547 14.6924 13.4661C14.6992 13.0775 14.555 12.7014 14.29 12.4171L8.92 7.04707Z" fill="black"/>
</svg>
