<svg width="100" height="101" viewBox="0 0 100 101" fill="none" xmlns="http://www.w3.org/2000/svg">
    <path d="M11.8415 80.203L12.0804 68.726C12.1239 66.7537 11.3767 64.8467 10.0126 63.4262L2.06728 55.142C-0.773751 52.1793 -0.673837 47.4747 2.28883 44.6336L10.573 36.6883C11.9979 35.3242 12.8189 33.4519 12.858 31.4797L13.0969 20.0026C13.1838 15.8974 16.5809 12.6437 20.6817 12.7263L32.1588 12.9652C34.131 13.0086 36.0381 12.2614 37.4586 10.8974L45.7428 2.95205C48.7055 0.111014 53.4101 0.210928 56.2511 3.1736L64.1965 11.4578C65.5605 12.8826 67.4328 13.7037 69.4051 13.7428L80.8821 13.9817C84.9873 14.0686 88.241 17.4657 88.1585 21.5665L87.9196 33.0436C87.8761 35.0158 88.6233 36.9229 89.9874 38.3434L97.9327 46.6276C100.774 49.5902 100.674 54.2949 97.7112 57.1359L89.427 65.0813C88.0021 66.4453 87.1811 68.3176 87.142 70.2898L86.9031 81.7669C86.8162 85.8721 83.4191 89.1258 79.3183 89.0433L67.8412 88.8043C65.869 88.7609 63.9619 89.5081 62.5414 90.8721L54.2572 98.8175C51.2945 101.659 46.5899 101.559 43.7489 98.5959L35.8035 90.3117C34.4395 88.8869 32.5672 88.0658 30.5949 88.0268L19.1178 87.7878C15.0127 87.701 11.759 84.3039 11.8415 80.203Z" fill="url(#paint0_linear_971_8283)"/>
    <path d="M45.5687 65.4855C44.6043 65.4855 43.6399 65.1162 42.9015 64.3821L30.1255 51.6061C28.6528 50.1335 28.6528 47.7442 30.1255 46.2759C31.5981 44.8033 33.9874 44.8033 35.4557 46.2759L45.5644 56.3846L64.5481 37.4053C66.0207 35.9326 68.41 35.9326 69.8783 37.4053C71.3509 38.8779 71.3509 41.2672 69.8783 42.7355L48.2317 64.3821C47.4975 65.1206 46.5288 65.4855 45.5644 65.4855H45.5687Z" fill="url(#paint1_linear_971_8283)"/>
    <defs>
        <linearGradient id="paint0_linear_971_8283" x1="80.1402" y1="101.289" x2="21.4581" y2="3.13754" gradientUnits="userSpaceOnUse">
            <stop offset="0.14" stop-color="#158A02"/>
            <stop offset="0.22" stop-color="#158A02"/>
            <stop offset="0.35" stop-color="#158A02"/>
            <stop offset="0.49" stop-color="#47AA37"/>
            <stop offset="0.64" stop-color="#70B26A"/>
            <stop offset="0.82" stop-color="#70B26A"/>
        </linearGradient>
        <linearGradient id="paint1_linear_971_8283" x1="50.6296" y1="64.6601" x2="49.5957" y2="31.2367" gradientUnits="userSpaceOnUse">
            <stop stop-color="#92DD86"/>
            <stop offset="0.24" stop-color="#C7F2C0"/>
            <stop offset="0.72" stop-color="white"/>
        </linearGradient>
    </defs>
</svg>
