<svg width="326" height="201" viewBox="0 0 326 201" fill="none" xmlns="http://www.w3.org/2000/svg">
<g clip-path="url(#clip0_863_13871)">
<path opacity="0.34" d="M76.234 62.9651C71.1009 74.928 27.7798 77.4332 15.9172 55.4495C11.542 47.3373 10.9034 34.8776 16.8995 28.6845C27.0933 18.1564 54.6662 27.5858 68.4945 44.5601C72.1556 49.0526 78.7403 57.1312 76.234 62.9651Z" fill="url(#paint0_linear_863_13871)"/>
<path opacity="0.34" d="M0.5 194.289C8.20982 165.239 23.0521 126.683 52.9998 117.061C78.8723 108.75 79.4956 129.272 111.011 134.051C194.14 146.656 233.082 27.3105 278.523 46.0117C307.454 57.9179 325.016 97.3685 313.266 141.597C306.559 166.845 293.392 184.407 284.766 194.117L0.5 194.289Z" fill="url(#paint1_linear_863_13871)"/>
<path d="M29.0097 196.14H259.189M271.727 195.785H296.736M10.2034 195.785H19.9575" stroke="#5C75C9" stroke-width="3.94409" stroke-miterlimit="10" stroke-linecap="round"/>
<path d="M230.504 199.427L174.56 198.393V48.6507L198.718 48.1318C210.094 48.1318 219.316 57.6274 219.316 69.3414V187.904C219.315 189.417 219.605 190.916 220.167 192.314C220.729 193.712 221.553 194.982 222.592 196.052C223.63 197.122 224.864 197.971 226.221 198.55C227.579 199.129 229.034 199.427 230.503 199.427H230.504Z" fill="url(#paint2_linear_863_13871)"/>
<path d="M241.692 175.372V187.905C241.692 190.961 240.514 193.891 238.416 196.052C236.318 198.213 233.472 199.427 230.505 199.428C227.415 199.428 224.473 198.139 222.446 196.053C221.405 194.984 220.58 193.714 220.018 192.316C219.455 190.918 219.167 189.419 219.168 187.905V175.372H241.692Z" fill="url(#paint3_linear_863_13871)"/>
<path d="M94.7203 63.4421H199.095V188C199.095 190.9 197.976 193.681 195.984 195.732C193.993 197.782 191.292 198.934 188.476 198.934H105.338C102.522 198.934 99.821 197.782 97.8295 195.732C95.838 193.681 94.7192 190.9 94.7192 188V63.4421H94.7203Z" fill="url(#paint4_linear_863_13871)"/>
<path d="M99.0017 62.6487H199.347V78.9067H99.0017V62.6487Z" fill="url(#paint5_linear_863_13871)"/>
<path d="M198.426 79.3075H99.0273C90.7747 79.3075 84.084 72.0167 84.084 63.519C84.0845 59.4383 85.6591 55.5248 88.4614 52.6393C91.2636 49.7537 95.0642 48.1324 99.0273 48.1318H198.427C196.464 48.132 194.521 48.5302 192.707 49.3037C190.894 50.0772 189.247 51.2109 187.859 52.64C186.471 54.0691 185.371 55.7657 184.62 57.6329C183.869 59.5 183.482 61.5012 183.482 63.5222C183.482 72.0167 190.173 79.3075 198.426 79.3075Z" fill="#FED4C4"/>
<path opacity="0.22" d="M290.814 159.272C309.97 159.272 325.5 143.281 325.5 123.556C325.5 103.83 309.97 87.8391 290.814 87.8391C271.657 87.8391 256.128 103.83 256.128 123.556C256.128 143.281 271.657 159.272 290.814 159.272Z" fill="url(#paint6_linear_863_13871)"/>
<path d="M277.648 159.72C296.805 159.72 312.335 143.729 312.335 124.003C312.335 104.278 296.805 88.2869 277.648 88.2869C258.492 88.2869 242.962 104.278 242.962 124.003C242.962 143.729 258.492 159.72 277.648 159.72Z" fill="url(#paint7_linear_863_13871)"/>
<path opacity="0.85" d="M279.12 131.644C282.464 131.644 285.175 128.853 285.175 125.41C285.175 121.967 282.464 119.176 279.12 119.176C275.777 119.176 273.066 121.967 273.066 125.41C273.066 128.853 275.777 131.644 279.12 131.644Z" fill="#2E419B"/>
<path opacity="0.85" d="M281.303 124.398L280.103 123.163L296.103 106.688L297.302 107.923L281.303 124.398Z" fill="#2E419B"/>
<path d="M310.087 124.798C310.087 142.415 297.499 157.004 281.082 159.547C298.628 157.778 312.336 142.538 312.336 124.004C312.336 104.28 296.806 88.2903 277.653 88.2903C268.8 88.2785 260.28 91.7639 253.848 98.0285C260.012 92.6098 267.854 89.6396 275.959 89.6548C294.807 89.6537 310.087 105.388 310.087 124.798Z" fill="url(#paint8_linear_863_13871)"/>
<path opacity="0.85" d="M261.705 146.896L259.454 144.577L275.983 127.557L278.234 129.875L261.705 146.896Z" fill="#2E419B"/>
<path opacity="0.85" d="M262.444 113.854L264.657 111.576L275.245 122.477L273.032 124.756L262.444 113.854Z" fill="#2E419B"/>
<path d="M277.655 130.181C280.998 130.181 283.709 127.39 283.709 123.947C283.709 120.504 280.998 117.713 277.655 117.713C274.311 117.713 271.601 120.504 271.601 123.947C271.601 127.39 274.311 130.181 277.655 130.181Z" fill="white"/>
<path d="M257.767 142.841L257.729 142.802L274.259 125.781L276.51 128.099L262.193 142.841C261.607 143.445 260.811 143.785 259.98 143.785C259.15 143.785 258.354 143.445 257.767 142.841Z" fill="white"/>
<path d="M264.065 112.184C264.652 111.579 265.448 111.24 266.278 111.24C267.108 111.24 267.904 111.579 268.491 112.184L276.866 120.808L274.653 123.087L264.065 112.184Z" fill="white"/>
<path d="M280.177 123.239L278.977 122.004L294.977 105.529L296.176 106.764L280.177 123.239Z" fill="white"/>
<path d="M145.036 143.49C159.689 143.49 171.568 131.259 171.568 116.17C171.568 101.082 159.689 88.8508 145.036 88.8508C130.383 88.8508 118.505 101.082 118.505 116.17C118.505 131.259 130.383 143.49 145.036 143.49Z" fill="#FA8A68"/>
<path d="M143.015 130.552C142.669 130.966 142.24 131.299 141.758 131.528C141.276 131.757 140.753 131.877 140.222 131.881C139.691 131.884 139.166 131.77 138.681 131.548C138.197 131.325 137.764 130.997 137.413 130.588L129.499 121.371C128.429 120.08 127.9 118.404 128.029 116.712C128.158 115.019 128.933 113.449 130.186 112.345L140.222 124.437L153.3 108.551C154.367 107.257 155.889 106.452 157.532 106.313C159.174 106.173 160.804 106.711 162.062 107.807L143.015 130.552Z" fill="white"/>
<path opacity="0.69" d="M174.309 182.438H133.185V175.371H174.309V182.438Z" fill="#A1BFF1"/>
<path opacity="0.69" d="M174.309 165.175H115.763V159.012H174.309V165.175Z" fill="#A1BFF1"/>
<path d="M122.051 199.881C122.166 199.798 122.265 199.694 122.341 199.572C122.417 199.451 122.469 199.315 122.494 199.173C122.519 199.031 122.516 198.886 122.486 198.745C122.457 198.604 122.4 198.47 122.321 198.351L99.6827 164.72C99.5214 164.481 99.2744 164.317 98.9961 164.265C98.7178 164.214 98.4309 164.278 98.1985 164.444C98.0832 164.526 97.9847 164.63 97.9087 164.752C97.8327 164.873 97.7806 165.008 97.7555 165.151C97.7304 165.293 97.7328 165.438 97.7624 165.579C97.792 165.721 97.8483 165.854 97.9282 165.973L120.564 199.604C120.725 199.844 120.973 200.007 121.251 200.059C121.53 200.111 121.817 200.047 122.049 199.881H122.051Z" fill="#2F3A87"/>
<path d="M45.5672 96.1587C45.5211 96.0898 45.4594 96.0334 45.3874 95.9945C45.3154 95.9556 45.2354 95.9353 45.1541 95.9353C45.0728 95.9353 44.9928 95.9556 44.9208 95.9945C44.8488 96.0334 44.7871 96.0898 44.741 96.1587L40.7932 102.114C40.7358 102.2 40.7051 102.302 40.7051 102.407C40.7051 102.511 40.7358 102.613 40.7932 102.699L68.1112 143.285C68.1409 143.329 68.1774 143.368 68.2193 143.4L76.6412 150.034C76.8085 150.232 77.0492 150.235 77.2624 150.086C77.2759 150.076 77.2889 150.066 77.3012 150.054C77.7496 149.718 78.0526 149.214 78.1456 148.651C78.2386 148.088 78.1142 147.51 77.799 147.04L73.1066 140.073C72.8354 139.673 72.442 139.377 71.9889 139.232C71.5358 139.088 71.0489 139.103 70.6053 139.276L46.4292 103.361L48.704 101.738C48.7582 101.7 48.8044 101.651 48.8401 101.594C48.8758 101.537 48.9002 101.473 48.912 101.406C48.9237 101.339 48.9226 101.271 48.9086 101.205C48.8946 101.138 48.8681 101.076 48.8305 101.02L45.5672 96.1587Z" fill="url(#paint9_linear_863_13871)"/>
<path d="M48.5674 83.8255C48.2825 83.4022 47.9195 83.0409 47.499 82.7621C47.0785 82.4833 46.6088 82.2925 46.1167 82.2006C45.6246 82.1087 45.1198 82.1176 44.631 82.2266C44.1422 82.3356 43.6791 82.5427 43.268 82.836C42.857 83.1294 42.506 83.5032 42.2353 83.9362C41.9645 84.3691 41.7792 84.8528 41.69 85.3595C41.6008 85.8662 41.6094 86.3861 41.7152 86.8894C41.8211 87.3927 42.0222 87.8696 42.3071 88.2928L58.7305 112.69C59.3058 113.545 60.1873 114.13 61.1812 114.315C62.175 114.501 63.1997 114.272 64.0299 113.68C64.86 113.087 65.4276 112.18 65.6078 111.156C65.7881 110.133 65.5661 109.078 64.9908 108.223L48.5674 83.8255Z" fill="#5C74C6"/>
<path d="M107.48 189.448L116.865 196.334C116.949 196.395 117.05 196.428 117.153 196.428C117.257 196.428 117.358 196.395 117.442 196.334L120.443 194.193C120.529 194.133 120.594 194.047 120.631 193.947C120.668 193.847 120.673 193.738 120.647 193.635L117.68 182.168L117.511 182.289L114.837 184.195L107.48 189.448Z" fill="#FCDACB"/>
<path d="M49.2815 103.492L103.476 184.003C103.49 184.053 103.512 184.101 103.54 184.145L106.691 188.834C106.725 188.883 106.766 188.926 106.812 188.961L107.476 189.45L114.831 184.198L117.505 182.291L117.674 182.171L117.464 181.357C117.448 181.299 117.423 181.245 117.392 181.195L114.24 176.509C114.209 176.464 114.171 176.424 114.128 176.391L59.9394 95.8862C59.902 95.8302 59.8542 95.7823 59.7988 95.7454C59.7433 95.7084 59.6813 95.6832 59.6164 95.6711C59.5514 95.659 59.4847 95.6602 59.4203 95.6748C59.3558 95.6894 59.2947 95.717 59.2406 95.756L49.408 102.774C49.2988 102.852 49.2242 102.971 49.2004 103.106C49.1767 103.241 49.2059 103.379 49.2815 103.492Z" fill="#FBAB92"/>
<path d="M56.9927 97.988L114.42 183.32L114.836 184.198L117.509 182.291L117.253 181.297L59.7989 95.9849L56.9927 97.988Z" fill="url(#paint10_linear_863_13871)"/>
<path d="M55.4009 89.1399C55.3635 89.0841 55.3157 89.0365 55.2603 88.9998C55.205 88.963 55.1431 88.9378 55.0783 88.9258C55.0135 88.9137 54.947 88.9148 54.8826 88.9292C54.8182 88.9436 54.7573 88.971 54.7032 89.0097L44.8695 96.0273C44.8153 96.0658 44.7689 96.115 44.7331 96.1719C44.6974 96.2289 44.6728 96.2926 44.661 96.3593C44.6491 96.4261 44.6502 96.4946 44.6641 96.5609C44.678 96.6272 44.7045 96.69 44.742 96.7458L48.8713 102.881C48.9088 102.937 48.9566 102.985 49.0121 103.022C49.0675 103.059 49.1295 103.084 49.1944 103.096C49.2594 103.108 49.326 103.107 49.3904 103.092C49.4549 103.078 49.516 103.05 49.5701 103.011L59.4037 95.9937C59.4579 95.9551 59.5042 95.906 59.5399 95.849C59.5756 95.7919 59.6 95.7283 59.6117 95.6615C59.6235 95.5948 59.6223 95.5263 59.6083 95.46C59.5944 95.3938 59.5678 95.331 59.5302 95.2753L55.4009 89.1399Z" fill="url(#paint11_linear_863_13871)"/>
<path d="M253.191 20.3088C250.86 22.8986 247.625 24.4286 244.198 24.5623C240.771 24.696 237.433 23.4225 234.918 21.0218C236.072 19.7395 237.461 18.7039 239.004 17.974C240.547 17.2442 242.214 16.8345 243.911 16.7683C245.608 16.7021 247.301 16.9807 248.893 17.5882C250.486 18.1957 251.946 19.1201 253.191 20.3088Z" fill="url(#paint12_linear_863_13871)"/>
<path d="M233.164 42.5516C231.918 41.3629 230.913 39.9333 230.204 38.3443C229.495 36.7554 229.097 35.0383 229.033 33.291C228.969 31.5438 229.239 29.8006 229.829 28.161C230.419 26.5214 231.317 25.0175 232.471 23.7351C234.986 26.1358 236.472 29.4669 236.602 32.9957C236.732 36.5245 235.495 39.9618 233.164 42.5516Z" fill="#FD9271"/>
<path d="M232.72 18.921C230.205 16.5203 228.719 13.1892 228.589 9.66041C228.459 6.13164 229.696 2.69429 232.028 0.104527C234.543 2.50519 236.028 5.83632 236.158 9.36509C236.288 12.8939 235.051 16.3312 232.72 18.921Z" fill="#5C75C9"/>
<path d="M230.27 21.6301C227.939 24.2199 224.704 25.7499 221.277 25.8836C217.85 26.0173 214.512 24.7438 211.997 22.3431C214.328 19.7534 217.563 18.2233 220.99 18.0896C224.417 17.9559 227.755 19.2295 230.27 21.6301Z" fill="url(#paint13_linear_863_13871)"/>
<path d="M265.645 73.0663L266.34 74.3741C267.196 75.9853 268.482 77.31 270.047 78.1912L271.317 78.9065L270.047 79.6218C268.482 80.5031 267.196 81.8278 266.34 83.439L265.645 84.7467L264.951 83.439C264.095 81.8278 262.808 80.5031 261.244 79.6218L259.974 78.9065L261.244 78.1912C262.808 77.31 264.095 75.9853 264.951 74.3741L265.645 73.0663ZM160.069 3.6438L160.764 4.95155C161.62 6.56274 162.906 7.88746 164.471 8.76867L165.741 9.48399L164.471 10.1993C162.906 11.0805 161.62 12.4052 160.764 14.0164L160.069 15.3242L159.375 14.0164C158.519 12.4052 157.232 11.0805 155.668 10.1993L154.398 9.48399L155.668 8.76867C157.232 7.88746 158.519 6.56274 159.375 4.95155L160.069 3.6438ZM35.9317 164.272L36.6264 165.58C37.4822 167.191 38.7687 168.516 40.3334 169.397L41.6034 170.112L40.3334 170.827C38.7687 171.709 37.4822 173.033 36.6264 174.645L35.9317 175.952L35.237 174.645C34.3812 173.033 33.0947 171.709 31.53 170.827L30.26 170.112L31.53 169.397C33.0947 168.516 34.3812 167.191 35.237 165.58L35.9317 164.272Z" fill="#5C74C6"/>
</g>
<defs>
<linearGradient id="paint0_linear_863_13871" x1="53.0558" y1="91.3813" x2="35.7893" y2="14.9234" gradientUnits="userSpaceOnUse">
<stop stop-color="#D6E6FD"/>
<stop offset="1" stop-color="#D2E3FD"/>
</linearGradient>
<linearGradient id="paint1_linear_863_13871" x1="141.913" y1="277.705" x2="430.075" y2="141.668" gradientUnits="userSpaceOnUse">
<stop stop-color="#D6E6FD"/>
<stop offset="1" stop-color="#D2E3FD"/>
</linearGradient>
<linearGradient id="paint2_linear_863_13871" x1="202.532" y1="188.455" x2="202.532" y2="-10.4013" gradientUnits="userSpaceOnUse">
<stop stop-color="#5C75C9"/>
<stop offset="1" stop-color="#2E419B"/>
</linearGradient>
<linearGradient id="paint3_linear_863_13871" x1="219.173" y1="187.4" x2="241.692" y2="187.4" gradientUnits="userSpaceOnUse">
<stop stop-color="#373282"/>
<stop offset="1" stop-color="#2E419B"/>
</linearGradient>
<linearGradient id="paint4_linear_863_13871" x1="197.515" y1="225.029" x2="299.733" y2="203.257" gradientUnits="userSpaceOnUse">
<stop stop-color="#D6E6FD"/>
<stop offset="1" stop-color="#D2E3FD"/>
</linearGradient>
<linearGradient id="paint5_linear_863_13871" x1="117.091" y1="70.7777" x2="217.435" y2="70.7777" gradientUnits="userSpaceOnUse">
<stop stop-color="#373282"/>
<stop offset="1" stop-color="#2E419B"/>
</linearGradient>
<linearGradient id="paint6_linear_863_13871" x1="290.814" y1="160.958" x2="290.814" y2="90.3842" gradientUnits="userSpaceOnUse">
<stop stop-color="#5C75C9"/>
<stop offset="1" stop-color="#D2E3FD"/>
</linearGradient>
<linearGradient id="paint7_linear_863_13871" x1="277.648" y1="29.7138" x2="277.648" y2="233.508" gradientUnits="userSpaceOnUse">
<stop stop-color="#5C75C9"/>
<stop offset="1" stop-color="#2E419B"/>
</linearGradient>
<linearGradient id="paint8_linear_863_13871" x1="283.091" y1="58.2197" x2="283.091" y2="168.165" gradientUnits="userSpaceOnUse">
<stop stop-color="#5C75C9"/>
<stop offset="1" stop-color="#2E419B"/>
</linearGradient>
<linearGradient id="paint9_linear_863_13871" x1="26.1397" y1="88.1074" x2="81.9074" y2="142.266" gradientUnits="userSpaceOnUse">
<stop stop-color="#5C75C9"/>
<stop offset="1" stop-color="#2E419B"/>
</linearGradient>
<linearGradient id="paint10_linear_863_13871" x1="58.4565" y1="97.5573" x2="130.788" y2="198.094" gradientUnits="userSpaceOnUse">
<stop stop-color="#FD9271"/>
<stop offset="1" stop-color="#EB8B75" stop-opacity="0"/>
</linearGradient>
<linearGradient id="paint11_linear_863_13871" x1="35.3001" y1="78.6748" x2="91.0678" y2="132.834" gradientUnits="userSpaceOnUse">
<stop stop-color="#5C75C9"/>
<stop offset="1" stop-color="#2E419B"/>
</linearGradient>
<linearGradient id="paint12_linear_863_13871" x1="248.45" y1="15.783" x2="239.382" y2="25.2829" gradientUnits="userSpaceOnUse">
<stop stop-color="#373282"/>
<stop offset="0.44" stop-color="#323A8F"/>
<stop offset="1" stop-color="#2E419B"/>
</linearGradient>
<linearGradient id="paint13_linear_863_13871" x1="225.533" y1="17.1078" x2="216.465" y2="26.6078" gradientUnits="userSpaceOnUse">
<stop stop-color="#373282"/>
<stop offset="0.44" stop-color="#323A8F"/>
<stop offset="1" stop-color="#2E419B"/>
</linearGradient>
<clipPath id="clip0_863_13871">
<rect width="325" height="200" fill="white" transform="translate(0.5 0.0754395)"/>
</clipPath>
</defs>
</svg>